%FSLAX43Y43*%
%MOMM*%
G71*
G01*
G75*
G04 Layer_Color=2752767*
%ADD10R,0.700X1.200*%
%ADD11R,2.050X0.700*%
%ADD12R,2.050X0.500*%
%ADD13O,1.500X0.600*%
%ADD14R,1.500X0.600*%
%ADD15R,1.800X1.300*%
%ADD16O,0.600X1.500*%
%ADD17R,0.600X1.500*%
%ADD18R,0.450X1.075*%
%ADD19R,1.075X0.450*%
%ADD20C,1.000*%
%ADD21R,1.400X1.000*%
%ADD22R,1.000X1.400*%
%ADD23R,1.400X1.000*%
%ADD24R,1.000X1.400*%
%ADD25C,1.000*%
%ADD26C,0.305*%
%ADD27C,0.300*%
%ADD28C,0.500*%
%ADD29C,0.200*%
%ADD30C,0.254*%
%ADD31O,0.900X1.200*%
%ADD32R,0.900X1.200*%
%ADD33C,1.800*%
%ADD34R,1.800X1.800*%
%ADD35R,1.800X1.800*%
%ADD36C,3.000*%
%ADD37C,2.000*%
%ADD38R,2.000X2.000*%
%ADD39C,0.800*%
%ADD40C,0.600*%
%ADD41C,0.250*%
%ADD42C,0.150*%
%ADD43C,0.100*%
%ADD44C,0.152*%
%ADD45R,0.903X1.403*%
%ADD46R,2.253X0.903*%
%ADD47R,2.253X0.703*%
%ADD48O,1.703X0.803*%
%ADD49R,1.703X0.803*%
%ADD50R,2.003X1.503*%
%ADD51O,0.803X1.703*%
%ADD52R,0.803X1.703*%
%ADD53R,0.653X1.278*%
%ADD54R,1.278X0.653*%
%ADD55C,1.203*%
%ADD56R,1.603X1.203*%
%ADD57R,1.203X1.603*%
%ADD58R,1.603X1.203*%
%ADD59R,1.203X1.603*%
%ADD60O,1.103X1.403*%
%ADD61R,1.103X1.403*%
%ADD62C,2.003*%
%ADD63R,2.003X2.003*%
%ADD64R,2.003X2.003*%
%ADD65C,3.203*%
%ADD66C,2.203*%
%ADD67R,2.203X2.203*%
%ADD68C,1.003*%
%ADD69C,0.169*%
%ADD70C,0.320*%
%ADD71C,0.119*%
D29*
X300Y-1800D02*
Y-800D01*
X800D01*
X966Y-967D01*
Y-1300D01*
X800Y-1467D01*
X300D01*
X1966Y-967D02*
X1800Y-800D01*
X1466D01*
X1300Y-967D01*
Y-1633D01*
X1466Y-1800D01*
X1800D01*
X1966Y-1633D01*
X2299Y-800D02*
Y-1800D01*
X2799D01*
X2966Y-1633D01*
Y-1467D01*
X2799Y-1300D01*
X2299D01*
X2799D01*
X2966Y-1134D01*
Y-967D01*
X2799Y-800D01*
X2299D01*
X4965Y-967D02*
X4799Y-800D01*
X4465D01*
X4299Y-967D01*
Y-1134D01*
X4465Y-1300D01*
X4799D01*
X4965Y-1467D01*
Y-1633D01*
X4799Y-1800D01*
X4465D01*
X4299Y-1633D01*
X5298Y-800D02*
X5632D01*
X5465D01*
Y-1800D01*
X5298D01*
X5632D01*
X6131Y-800D02*
X6798D01*
Y-967D01*
X6131Y-1633D01*
Y-1800D01*
X6798D01*
X7798Y-800D02*
X7131D01*
Y-1800D01*
X7798D01*
X7131Y-1300D02*
X7464D01*
X8131Y-1134D02*
X8297D01*
Y-1300D01*
X8131D01*
Y-1134D01*
Y-1633D02*
X8297D01*
Y-1800D01*
X8131D01*
Y-1633D01*
X9464Y-1800D02*
Y-800D01*
X8964Y-1300D01*
X9630D01*
X10630Y-800D02*
X10297Y-967D01*
X9964Y-1300D01*
Y-1633D01*
X10130Y-1800D01*
X10463D01*
X10630Y-1633D01*
Y-1467D01*
X10463Y-1300D01*
X9964D01*
X10963Y-800D02*
X11630Y-1800D01*
Y-800D02*
X10963Y-1800D01*
X11963Y-967D02*
X12130Y-800D01*
X12463D01*
X12629Y-967D01*
Y-1134D01*
X12463Y-1300D01*
X12296D01*
X12463D01*
X12629Y-1467D01*
Y-1633D01*
X12463Y-1800D01*
X12130D01*
X11963Y-1633D01*
X12963Y-800D02*
X13629D01*
Y-967D01*
X12963Y-1633D01*
Y-1800D01*
X13962D02*
Y-1134D01*
X14129D01*
X14295Y-1300D01*
Y-1800D01*
Y-1300D01*
X14462Y-1134D01*
X14629Y-1300D01*
Y-1800D01*
X14962D02*
Y-1134D01*
X15129D01*
X15295Y-1300D01*
Y-1800D01*
Y-1300D01*
X15462Y-1134D01*
X15628Y-1300D01*
Y-1800D01*
X500Y39400D02*
X167D01*
X0Y39233D01*
Y38567D01*
X167Y38400D01*
X500D01*
X666Y38567D01*
Y39233D01*
X500Y39400D01*
X1000Y38067D02*
Y39066D01*
X1500D01*
X1666Y38900D01*
Y38567D01*
X1500Y38400D01*
X1000D01*
X2499D02*
X2166D01*
X1999Y38567D01*
Y38900D01*
X2166Y39066D01*
X2499D01*
X2666Y38900D01*
Y38733D01*
X1999D01*
X2999Y38400D02*
Y39066D01*
X3499D01*
X3665Y38900D01*
Y38400D01*
X4665Y39233D02*
X4499Y39400D01*
X4165D01*
X3999Y39233D01*
Y39066D01*
X4165Y38900D01*
X4499D01*
X4665Y38733D01*
Y38567D01*
X4499Y38400D01*
X4165D01*
X3999Y38567D01*
X5665Y39066D02*
X5165D01*
X4998Y38900D01*
Y38567D01*
X5165Y38400D01*
X5665D01*
X6165Y39066D02*
X6498D01*
X6665Y38900D01*
Y38400D01*
X6165D01*
X5998Y38567D01*
X6165Y38733D01*
X6665D01*
X6998Y38400D02*
X7331D01*
X7164D01*
Y39400D01*
X6998D01*
X8331Y38400D02*
X7997D01*
X7831Y38567D01*
Y38900D01*
X7997Y39066D01*
X8331D01*
X8497Y38900D01*
Y38733D01*
X7831D01*
X8830Y38233D02*
X9497D01*
X9830Y39066D02*
X10163Y38400D01*
X10497Y39066D01*
X10830Y39233D02*
X10996Y39400D01*
X11330D01*
X11496Y39233D01*
Y38567D01*
X11330Y38400D01*
X10996D01*
X10830Y38567D01*
Y39233D01*
X12496Y38400D02*
X11830D01*
X12496Y39066D01*
Y39233D01*
X12329Y39400D01*
X11996D01*
X11830Y39233D01*
X56258Y16400D02*
X56924D01*
Y16233D01*
X56258Y15567D01*
Y15400D01*
X57258Y16233D02*
X57424Y16400D01*
X57757D01*
X57924Y16233D01*
Y16066D01*
X57757Y15900D01*
X57924Y15733D01*
Y15567D01*
X57757Y15400D01*
X57424D01*
X57258Y15567D01*
Y15733D01*
X57424Y15900D01*
X57258Y16066D01*
Y16233D01*
X57424Y15900D02*
X57757D01*
X68015Y16233D02*
X68181Y16400D01*
X68515D01*
X68681Y16233D01*
Y15567D01*
X68515Y15400D01*
X68181D01*
X68015Y15567D01*
Y16233D01*
X69015Y15400D02*
Y15567D01*
X69181D01*
Y15400D01*
X69015D01*
X70514Y16400D02*
X69848D01*
Y15900D01*
X70181Y16066D01*
X70347D01*
X70514Y15900D01*
Y15567D01*
X70347Y15400D01*
X70014D01*
X69848Y15567D01*
X70847Y15400D02*
Y16066D01*
X71014D01*
X71180Y15900D01*
Y15400D01*
Y15900D01*
X71347Y16066D01*
X71514Y15900D01*
Y15400D01*
X71847D02*
Y16066D01*
X72014D01*
X72180Y15900D01*
Y15400D01*
Y15900D01*
X72347Y16066D01*
X72513Y15900D01*
Y15400D01*
X74179D02*
X73846Y15733D01*
Y16066D01*
X74179Y16400D01*
X74679Y15400D02*
X75013D01*
X74846D01*
Y16400D01*
X74679Y16233D01*
X75512Y15567D02*
X75679Y15400D01*
X76012D01*
X76179Y15567D01*
Y16233D01*
X76012Y16400D01*
X75679D01*
X75512Y16233D01*
Y16066D01*
X75679Y15900D01*
X76179D01*
X76512Y15400D02*
Y15567D01*
X76679D01*
Y15400D01*
X76512D01*
X78012Y16400D02*
X77678Y16233D01*
X77345Y15900D01*
Y15567D01*
X77512Y15400D01*
X77845D01*
X78012Y15567D01*
Y15733D01*
X77845Y15900D01*
X77345D01*
X78345Y16233D02*
X78511Y16400D01*
X78845D01*
X79011Y16233D01*
Y16066D01*
X78845Y15900D01*
X79011Y15733D01*
Y15567D01*
X78845Y15400D01*
X78511D01*
X78345Y15567D01*
Y15733D01*
X78511Y15900D01*
X78345Y16066D01*
Y16233D01*
X78511Y15900D02*
X78845D01*
X80011Y16400D02*
X79344D01*
Y15900D01*
X79678Y16066D01*
X79844D01*
X80011Y15900D01*
Y15567D01*
X79844Y15400D01*
X79511D01*
X79344Y15567D01*
X80344Y15400D02*
Y16066D01*
X80511D01*
X80677Y15900D01*
Y15400D01*
Y15900D01*
X80844Y16066D01*
X81011Y15900D01*
Y15400D01*
X81344D02*
X81677D01*
X81510D01*
Y16066D01*
X81344D01*
X82177Y15400D02*
X82510D01*
X82344D01*
Y16400D01*
X82177D01*
X83010Y15400D02*
X83343Y15733D01*
Y16066D01*
X83010Y16400D01*
X85263Y15400D02*
Y16400D01*
X85763D01*
X85930Y16233D01*
Y15900D01*
X85763Y15733D01*
X85263D01*
X86263Y16400D02*
X86929D01*
X86596D01*
Y15400D01*
X87263Y16400D02*
Y15400D01*
Y15900D01*
X87929D01*
Y16400D01*
Y15400D01*
X93821D02*
Y16400D01*
X94321D01*
X94488Y16233D01*
Y15900D01*
X94321Y15733D01*
X93821D01*
X94154D02*
X94488Y15400D01*
X94987D02*
X95321D01*
X95487Y15567D01*
Y15900D01*
X95321Y16066D01*
X94987D01*
X94821Y15900D01*
Y15567D01*
X94987Y15400D01*
X95820Y16066D02*
Y15567D01*
X95987Y15400D01*
X96487D01*
Y16066D01*
X96820Y15400D02*
Y16066D01*
X97320D01*
X97487Y15900D01*
Y15400D01*
X98486Y16400D02*
Y15400D01*
X97986D01*
X97820Y15567D01*
Y15900D01*
X97986Y16066D01*
X98486D01*
X56258Y13400D02*
X56591D01*
X56425D01*
Y14400D01*
X56258Y14233D01*
X57091D02*
X57258Y14400D01*
X57591D01*
X57757Y14233D01*
Y14066D01*
X57591Y13900D01*
X57757Y13733D01*
Y13567D01*
X57591Y13400D01*
X57258D01*
X57091Y13567D01*
Y13733D01*
X57258Y13900D01*
X57091Y14066D01*
Y14233D01*
X57258Y13900D02*
X57591D01*
X68015Y13400D02*
X68348D01*
X68181D01*
Y14400D01*
X68015Y14233D01*
X68848Y13400D02*
Y14066D01*
X69015D01*
X69181Y13900D01*
Y13400D01*
Y13900D01*
X69348Y14066D01*
X69514Y13900D01*
Y13400D01*
X69848D02*
Y14066D01*
X70014D01*
X70181Y13900D01*
Y13400D01*
Y13900D01*
X70347Y14066D01*
X70514Y13900D01*
Y13400D01*
X72180D02*
X71847Y13733D01*
Y14066D01*
X72180Y14400D01*
X72680Y14233D02*
X72847Y14400D01*
X73180D01*
X73346Y14233D01*
Y14066D01*
X73180Y13900D01*
X73013D01*
X73180D01*
X73346Y13733D01*
Y13567D01*
X73180Y13400D01*
X72847D01*
X72680Y13567D01*
X73680D02*
X73846Y13400D01*
X74179D01*
X74346Y13567D01*
Y14233D01*
X74179Y14400D01*
X73846D01*
X73680Y14233D01*
Y14066D01*
X73846Y13900D01*
X74346D01*
X74679Y13400D02*
Y13567D01*
X74846D01*
Y13400D01*
X74679D01*
X75512Y14233D02*
X75679Y14400D01*
X76012D01*
X76179Y14233D01*
Y14066D01*
X76012Y13900D01*
X75846D01*
X76012D01*
X76179Y13733D01*
Y13567D01*
X76012Y13400D01*
X75679D01*
X75512Y13567D01*
X76512Y14400D02*
X77179D01*
Y14233D01*
X76512Y13567D01*
Y13400D01*
X77512D02*
Y14066D01*
X77678D01*
X77845Y13900D01*
Y13400D01*
Y13900D01*
X78012Y14066D01*
X78178Y13900D01*
Y13400D01*
X78511D02*
X78845D01*
X78678D01*
Y14066D01*
X78511D01*
X79344Y13400D02*
X79678D01*
X79511D01*
Y14400D01*
X79344D01*
X80178Y13400D02*
X80511Y13733D01*
Y14066D01*
X80178Y14400D01*
X85263Y13400D02*
Y14400D01*
X85763D01*
X85930Y14233D01*
Y13900D01*
X85763Y13733D01*
X85263D01*
X86263Y14400D02*
X86929D01*
X86596D01*
Y13400D01*
X87263Y14400D02*
Y13400D01*
Y13900D01*
X87929D01*
Y14400D01*
Y13400D01*
X93821D02*
Y14400D01*
X94321D01*
X94488Y14233D01*
Y13900D01*
X94321Y13733D01*
X93821D01*
X94154D02*
X94488Y13400D01*
X94987D02*
X95321D01*
X95487Y13567D01*
Y13900D01*
X95321Y14066D01*
X94987D01*
X94821Y13900D01*
Y13567D01*
X94987Y13400D01*
X95820Y14066D02*
Y13567D01*
X95987Y13400D01*
X96487D01*
Y14066D01*
X96820Y13400D02*
Y14066D01*
X97320D01*
X97487Y13900D01*
Y13400D01*
X98486Y14400D02*
Y13400D01*
X97986D01*
X97820Y13567D01*
Y13900D01*
X97986Y14066D01*
X98486D01*
X56758Y11400D02*
Y12400D01*
X56258Y11900D01*
X56924D01*
X68015Y11400D02*
X68348D01*
X68181D01*
Y12400D01*
X68015Y12233D01*
X68848Y11400D02*
Y11567D01*
X69015D01*
Y11400D01*
X68848D01*
X70347D02*
X69681D01*
X70347Y12066D01*
Y12233D01*
X70181Y12400D01*
X69848D01*
X69681Y12233D01*
X70681Y11400D02*
Y12066D01*
X70847D01*
X71014Y11900D01*
Y11400D01*
Y11900D01*
X71180Y12066D01*
X71347Y11900D01*
Y11400D01*
X71680D02*
Y12066D01*
X71847D01*
X72014Y11900D01*
Y11400D01*
Y11900D01*
X72180Y12066D01*
X72347Y11900D01*
Y11400D01*
X74013D02*
X73680Y11733D01*
Y12066D01*
X74013Y12400D01*
X75013Y11400D02*
Y12400D01*
X74513Y11900D01*
X75179D01*
X75512Y12400D02*
X76179D01*
Y12233D01*
X75512Y11567D01*
Y11400D01*
X76512D02*
Y11567D01*
X76679D01*
Y11400D01*
X76512D01*
X78012D02*
X77345D01*
X78012Y12066D01*
Y12233D01*
X77845Y12400D01*
X77512D01*
X77345Y12233D01*
X78845Y11400D02*
Y12400D01*
X78345Y11900D01*
X79011D01*
X79844Y11400D02*
Y12400D01*
X79344Y11900D01*
X80011D01*
X80344Y11400D02*
Y12066D01*
X80511D01*
X80677Y11900D01*
Y11400D01*
Y11900D01*
X80844Y12066D01*
X81011Y11900D01*
Y11400D01*
X81344D02*
X81677D01*
X81510D01*
Y12066D01*
X81344D01*
X82177Y11400D02*
X82510D01*
X82344D01*
Y12400D01*
X82177D01*
X83010Y11400D02*
X83343Y11733D01*
Y12066D01*
X83010Y12400D01*
X85263Y11400D02*
Y12400D01*
X85763D01*
X85930Y12233D01*
Y11900D01*
X85763Y11733D01*
X85263D01*
X86263Y12400D02*
X86929D01*
X86596D01*
Y11400D01*
X87263Y12400D02*
Y11400D01*
Y11900D01*
X87929D01*
Y12400D01*
Y11400D01*
X93821D02*
Y12400D01*
X94321D01*
X94488Y12233D01*
Y11900D01*
X94321Y11733D01*
X93821D01*
X94154D02*
X94488Y11400D01*
X94987D02*
X95321D01*
X95487Y11567D01*
Y11900D01*
X95321Y12066D01*
X94987D01*
X94821Y11900D01*
Y11567D01*
X94987Y11400D01*
X95820Y12066D02*
Y11567D01*
X95987Y11400D01*
X96487D01*
Y12066D01*
X96820Y11400D02*
Y12066D01*
X97320D01*
X97487Y11900D01*
Y11400D01*
X98486Y12400D02*
Y11400D01*
X97986D01*
X97820Y11567D01*
Y11900D01*
X97986Y12066D01*
X98486D01*
X56758Y9400D02*
Y10400D01*
X56258Y9900D01*
X56924D01*
X68015Y10233D02*
X68181Y10400D01*
X68515D01*
X68681Y10233D01*
Y10066D01*
X68515Y9900D01*
X68348D01*
X68515D01*
X68681Y9733D01*
Y9567D01*
X68515Y9400D01*
X68181D01*
X68015Y9567D01*
X69015Y9400D02*
Y10066D01*
X69181D01*
X69348Y9900D01*
Y9400D01*
Y9900D01*
X69514Y10066D01*
X69681Y9900D01*
Y9400D01*
X70014D02*
Y10066D01*
X70181D01*
X70347Y9900D01*
Y9400D01*
Y9900D01*
X70514Y10066D01*
X70681Y9900D01*
Y9400D01*
X72347D02*
X72014Y9733D01*
Y10066D01*
X72347Y10400D01*
X72847Y9400D02*
X73180D01*
X73013D01*
Y10400D01*
X72847Y10233D01*
X73680Y9400D02*
X74013D01*
X73846D01*
Y10400D01*
X73680Y10233D01*
X74513D02*
X74679Y10400D01*
X75013D01*
X75179Y10233D01*
Y10066D01*
X75013Y9900D01*
X75179Y9733D01*
Y9567D01*
X75013Y9400D01*
X74679D01*
X74513Y9567D01*
Y9733D01*
X74679Y9900D01*
X74513Y10066D01*
Y10233D01*
X74679Y9900D02*
X75013D01*
X75512Y9400D02*
Y9567D01*
X75679D01*
Y9400D01*
X75512D01*
X76345D02*
X76679D01*
X76512D01*
Y10400D01*
X76345Y10233D01*
X77179Y9400D02*
X77512D01*
X77345D01*
Y10400D01*
X77179Y10233D01*
X78012Y9400D02*
Y10066D01*
X78178D01*
X78345Y9900D01*
Y9400D01*
Y9900D01*
X78511Y10066D01*
X78678Y9900D01*
Y9400D01*
X79011D02*
X79344D01*
X79178D01*
Y10066D01*
X79011D01*
X79844Y9400D02*
X80178D01*
X80011D01*
Y10400D01*
X79844D01*
X80677Y9400D02*
X81011Y9733D01*
Y10066D01*
X80677Y10400D01*
X85263Y9400D02*
Y10400D01*
X85763D01*
X85930Y10233D01*
Y9900D01*
X85763Y9733D01*
X85263D01*
X86263Y10400D02*
X86929D01*
X86596D01*
Y9400D01*
X87263Y10400D02*
Y9400D01*
Y9900D01*
X87929D01*
Y10400D01*
Y9400D01*
X93821D02*
Y10400D01*
X94321D01*
X94488Y10233D01*
Y9900D01*
X94321Y9733D01*
X93821D01*
X94154D02*
X94488Y9400D01*
X94987D02*
X95321D01*
X95487Y9567D01*
Y9900D01*
X95321Y10066D01*
X94987D01*
X94821Y9900D01*
Y9567D01*
X94987Y9400D01*
X95820Y10066D02*
Y9567D01*
X95987Y9400D01*
X96487D01*
Y10066D01*
X96820Y9400D02*
Y10066D01*
X97320D01*
X97487Y9900D01*
Y9400D01*
X98486Y10400D02*
Y9400D01*
X97986D01*
X97820Y9567D01*
Y9900D01*
X97986Y10066D01*
X98486D01*
X56258Y7400D02*
X56591D01*
X56425D01*
Y8400D01*
X56258Y8233D01*
X57091D02*
X57258Y8400D01*
X57591D01*
X57757Y8233D01*
Y7567D01*
X57591Y7400D01*
X57258D01*
X57091Y7567D01*
Y8233D01*
X58591Y7400D02*
Y8400D01*
X58091Y7900D01*
X58757D01*
X60677Y8400D02*
X61344D01*
X61010D01*
Y7400D01*
X61843D02*
X62177D01*
X62343Y7567D01*
Y7900D01*
X62177Y8066D01*
X61843D01*
X61677Y7900D01*
Y7567D01*
X61843Y7400D01*
X62843Y8233D02*
Y8066D01*
X62676D01*
X63010D01*
X62843D01*
Y7567D01*
X63010Y7400D01*
X63676Y8066D02*
X64009D01*
X64176Y7900D01*
Y7400D01*
X63676D01*
X63510Y7567D01*
X63676Y7733D01*
X64176D01*
X64509Y7400D02*
X64842D01*
X64676D01*
Y8400D01*
X64509D01*
D30*
X0Y37000D02*
X46000D01*
Y0D02*
Y37000D01*
X0Y0D02*
X46000D01*
X0D02*
Y37000D01*
D43*
X25831Y31496D02*
Y32512D01*
X26847D01*
Y31496D01*
X25831D01*
X32081D02*
Y32512D01*
X33097D01*
Y31496D01*
X32081D01*
X30831D02*
Y32512D01*
X31847D01*
Y31496D01*
X30831D01*
X29581D02*
Y32512D01*
X30597D01*
Y31496D01*
X29581D01*
X28331D02*
Y32512D01*
X29347D01*
Y31496D01*
X28331D01*
X27081D02*
Y32512D01*
X28097D01*
Y31496D01*
X27081D01*
X3000Y2492D02*
X2492Y3508D01*
X3508D01*
X3000Y2492D01*
X43000D02*
X42492Y3508D01*
X43508D01*
X43000Y2492D01*
Y33492D02*
X42492Y34508D01*
X43508D01*
X43000Y33492D01*
X3000D02*
X2492Y34508D01*
X3508D01*
X3000Y33492D01*
X12136Y9144D02*
X12390Y9398D01*
X12644D01*
X12390Y9652D01*
X12644Y9906D01*
X12390D01*
X12136Y10160D01*
X11882Y9906D01*
X11628D01*
X11882Y9652D01*
X11628Y9398D01*
X11882D01*
X12136Y9144D01*
X8636D02*
X8890Y9398D01*
X9144D01*
X8890Y9652D01*
X9144Y9906D01*
X8890D01*
X8636Y10160D01*
X8382Y9906D01*
X8128D01*
X8382Y9652D01*
X8128Y9398D01*
X8382D01*
X8636Y9144D01*
X15636D02*
X15890Y9398D01*
X16144D01*
X15890Y9652D01*
X16144Y9906D01*
X15890D01*
X15636Y10160D01*
X15382Y9906D01*
X15128D01*
X15382Y9652D01*
X15128Y9398D01*
X15382D01*
X15636Y9144D01*
X19136Y9244D02*
X19390Y9498D01*
X19644D01*
X19390Y9752D01*
X19644Y10006D01*
X19390D01*
X19136Y10260D01*
X18882Y10006D01*
X18628D01*
X18882Y9752D01*
X18628Y9498D01*
X18882D01*
X19136Y9244D01*
X29492Y33692D02*
Y34708D01*
X30508D01*
Y33692D01*
X29492D01*
X32792Y18192D02*
Y19208D01*
X33808D01*
Y18192D01*
X32792D01*
X6092Y30692D02*
Y31708D01*
X7108D01*
Y30692D01*
X6092D01*
X992Y28592D02*
Y29608D01*
X2008D01*
Y28592D01*
X992D01*
X43742Y19742D02*
Y20758D01*
X44758D01*
Y19742D01*
X43742D01*
Y23492D02*
Y24508D01*
X44758D01*
Y23492D01*
X43742D01*
Y27742D02*
Y28758D01*
X44758D01*
Y27742D01*
X43742D01*
X18992Y15742D02*
Y16758D01*
X20008D01*
Y15742D01*
X18992D01*
X16992Y742D02*
Y1758D01*
X18008D01*
Y742D01*
X16992D01*
X36992D02*
Y1758D01*
X38008D01*
Y742D01*
X36992D01*
X33492D02*
Y1758D01*
X34508D01*
Y742D01*
X33492D01*
X29742D02*
Y1758D01*
X30758D01*
Y742D01*
X29742D01*
X25492D02*
Y1758D01*
X26508D01*
Y742D01*
X25492D01*
X20992Y14742D02*
Y15758D01*
X22008D01*
Y14742D01*
X20992D01*
X20792Y16892D02*
Y17908D01*
X21808D01*
Y16892D01*
X20792D01*
X7592Y21692D02*
Y22708D01*
X8608D01*
Y21692D01*
X7592D01*
X30092Y25592D02*
Y26608D01*
X31108D01*
Y25592D01*
X30092D01*
X25892Y23492D02*
Y24508D01*
X26908D01*
Y23492D01*
X25892D01*
Y34892D02*
Y35908D01*
X26908D01*
Y34892D01*
X25892D01*
X7592D02*
Y35908D01*
X8608D01*
Y34892D01*
X7592D01*
X11492D02*
Y35908D01*
X12508D01*
Y34892D01*
X11492D01*
X15692D02*
Y35908D01*
X16708D01*
Y34892D01*
X15692D01*
X20792D02*
Y35908D01*
X21808D01*
Y34892D01*
X20792D01*
X5792Y18092D02*
Y19108D01*
X6808D01*
Y18092D01*
X5792D01*
X38492Y3992D02*
Y5008D01*
X39508D01*
Y3992D01*
X38492D01*
X40592Y6992D02*
Y8008D01*
X41608D01*
Y6992D01*
X40592D01*
X29192Y3692D02*
Y4708D01*
X30208D01*
Y3692D01*
X29192D01*
X12092Y692D02*
Y1708D01*
X13108D01*
Y692D01*
X12092D01*
X6992D02*
Y1708D01*
X8008D01*
Y692D01*
X6992D01*
X28892Y27692D02*
Y28708D01*
X29908D01*
Y27692D01*
X28892D01*
X19042Y19792D02*
Y20808D01*
X20058D01*
Y19792D01*
X19042D01*
X23992Y12542D02*
Y13558D01*
X25008D01*
Y12542D01*
X23992D01*
X1017Y14842D02*
Y15858D01*
X2033D01*
Y14842D01*
X1017D01*
X21167Y22592D02*
Y23608D01*
X22183D01*
Y22592D01*
X21167D01*
X21042Y30692D02*
Y31708D01*
X22058D01*
Y30692D01*
X21042D01*
Y27067D02*
Y28083D01*
X22058D01*
Y27067D01*
X21042D01*
X10017Y26292D02*
Y27308D01*
X11033D01*
Y26292D01*
X10017D01*
X37592Y10592D02*
Y11608D01*
X38608D01*
Y10592D01*
X37592D01*
X7592Y16292D02*
Y17308D01*
X8608D01*
Y16292D01*
X7592D01*
X6092Y16292D02*
Y17308D01*
X7108D01*
Y16292D01*
X6092D01*
X15692Y13292D02*
Y14308D01*
X16708D01*
Y13292D01*
X15692D01*
X3092Y10292D02*
Y11308D01*
X4108D01*
Y10292D01*
X3092D01*
X32792Y12092D02*
Y13108D01*
X33808D01*
Y12092D01*
X32792D01*
X33992Y26192D02*
Y27208D01*
X35008D01*
Y26192D01*
X33992D01*
X34592Y23092D02*
Y24108D01*
X35608D01*
Y23092D01*
X34592D01*
X33092Y16892D02*
Y17908D01*
X34108D01*
Y16892D01*
X33092D01*
X26792Y19292D02*
Y20308D01*
X27808D01*
Y19292D01*
X26792D01*
X20792Y19592D02*
Y20608D01*
X21808D01*
Y19592D01*
X20792D01*
X35892Y18292D02*
Y19308D01*
X36908D01*
Y18292D01*
X35892D01*
X27992Y13892D02*
Y14908D01*
X29008D01*
Y13892D01*
X27992D01*
X31792Y20792D02*
Y21808D01*
X32808D01*
Y20792D01*
X31792D01*
X34692Y21392D02*
Y22408D01*
X35708D01*
Y21392D01*
X34692D01*
X26492Y14340D02*
Y15356D01*
X27508D01*
Y14340D01*
X26492D01*
Y24692D02*
Y25708D01*
X27508D01*
Y24692D01*
X26492D01*
X31292Y22123D02*
Y23139D01*
X32308D01*
Y22123D01*
X31292D01*
X28292Y22292D02*
Y23308D01*
X29308D01*
Y22292D01*
X28292D01*
X38792Y16292D02*
Y17308D01*
X39808D01*
Y16292D01*
X38792D01*
X39692Y17792D02*
Y18808D01*
X40708D01*
Y17792D01*
X39692D01*
X32492Y29492D02*
Y30508D01*
X33508D01*
Y29492D01*
X32492D01*
X792Y24367D02*
Y25383D01*
X1808D01*
Y24367D01*
X792D01*
X917Y19292D02*
Y20308D01*
X1933D01*
Y19292D01*
X917D01*
X992Y9392D02*
Y10408D01*
X2008D01*
Y9392D01*
X992D01*
X3992Y16292D02*
Y17308D01*
X5008D01*
Y16292D01*
X3992D01*
X9992D02*
Y17308D01*
X11008D01*
Y16292D01*
X9992D01*
X34292Y34892D02*
Y35908D01*
X35308D01*
Y34892D01*
X34292D01*
X37892D02*
Y35908D01*
X38908D01*
Y34892D01*
X37892D01*
Y31592D02*
Y32608D01*
X38908D01*
Y31592D01*
X37892D01*
X43292Y6992D02*
Y8008D01*
X44308D01*
Y6992D01*
X43292D01*
X41492Y10292D02*
Y11308D01*
X42508D01*
Y10292D01*
X41492D01*
X22892Y21092D02*
Y22108D01*
X23908D01*
Y21092D01*
X22892D01*
X29792Y34892D02*
Y35908D01*
X30808D01*
Y34892D01*
X29792D01*
X5792Y10592D02*
Y11608D01*
X6808D01*
Y10592D01*
X5792D01*
X47700Y15544D02*
Y16256D01*
X48411D01*
Y15544D01*
X47700D01*
X48056Y11544D02*
X48233Y11722D01*
X48411D01*
X48233Y11900D01*
X48411Y12078D01*
X48233D01*
X48056Y12256D01*
X47878Y12078D01*
X47700D01*
X47878Y11900D01*
X47700Y11722D01*
X47878D01*
X48056Y11544D01*
Y9544D02*
X47700Y10256D01*
X48411D01*
X48056Y9544D01*
D69*
X18034Y6096D02*
G03*
X18034Y6096I-508J0D01*
G01*
X15494D02*
G03*
X15494Y6096I-508J0D01*
G01*
X12954D02*
G03*
X12954Y6096I-508J0D01*
G01*
X10414D02*
G03*
X10414Y6096I-508J0D01*
G01*
X40132Y28194D02*
G03*
X40132Y28194I-508J0D01*
G01*
Y25654D02*
G03*
X40132Y25654I-508J0D01*
G01*
Y23114D02*
G03*
X40132Y23114I-508J0D01*
G01*
Y20574D02*
G03*
X40132Y20574I-508J0D01*
G01*
X27178Y6096D02*
G03*
X27178Y6096I-508J0D01*
G01*
X29718D02*
G03*
X29718Y6096I-508J0D01*
G01*
X32258D02*
G03*
X32258Y6096I-508J0D01*
G01*
X34798D02*
G03*
X34798Y6096I-508J0D01*
G01*
X37338D02*
G03*
X37338Y6096I-508J0D01*
G01*
X24638D02*
G03*
X24638Y6096I-508J0D01*
G01*
X18034Y30480D02*
G03*
X18034Y30480I-508J0D01*
G01*
X15494D02*
G03*
X15494Y30480I-508J0D01*
G01*
X12954D02*
G03*
X12954Y30480I-508J0D01*
G01*
X10414D02*
G03*
X10414Y30480I-508J0D01*
G01*
D70*
X48500Y18800D02*
X48300Y19000D01*
X47900D01*
X47700Y18800D01*
Y18600D01*
X47900Y18400D01*
X48300D01*
X48500Y18200D01*
Y18000D01*
X48300Y17800D01*
X47900D01*
X47700Y18000D01*
X48900Y18600D02*
Y18000D01*
X49100Y17800D01*
X49699D01*
Y17600D01*
X49499Y17400D01*
X49299D01*
X49699Y17800D02*
Y18600D01*
X50099Y17800D02*
Y18600D01*
X50299D01*
X50499Y18400D01*
Y17800D01*
Y18400D01*
X50699Y18600D01*
X50899Y18400D01*
Y17800D01*
X51299Y19000D02*
Y17800D01*
X51899D01*
X52099Y18000D01*
Y18200D01*
Y18400D01*
X51899Y18600D01*
X51299D01*
X52698Y17800D02*
X53098D01*
X53298Y18000D01*
Y18400D01*
X53098Y18600D01*
X52698D01*
X52498Y18400D01*
Y18000D01*
X52698Y17800D01*
X53698D02*
X54098D01*
X53898D01*
Y19000D01*
X53698D01*
X56258D02*
Y17800D01*
Y18400D01*
X57058D01*
Y19000D01*
Y17800D01*
X57458D02*
X57857D01*
X57657D01*
Y18600D01*
X57458D01*
X58657Y18800D02*
Y18600D01*
X58457D01*
X58857D01*
X58657D01*
Y18000D01*
X58857Y17800D01*
X61456Y18800D02*
X61256Y19000D01*
X60856D01*
X60657Y18800D01*
Y18000D01*
X60856Y17800D01*
X61256D01*
X61456Y18000D01*
X62056Y17800D02*
X62456D01*
X62656Y18000D01*
Y18400D01*
X62456Y18600D01*
X62056D01*
X61856Y18400D01*
Y18000D01*
X62056Y17800D01*
X63056Y18600D02*
Y18000D01*
X63256Y17800D01*
X63855D01*
Y18600D01*
X64255Y17800D02*
Y18600D01*
X64855D01*
X65055Y18400D01*
Y17800D01*
X65655Y18800D02*
Y18600D01*
X65455D01*
X65855D01*
X65655D01*
Y18000D01*
X65855Y17800D01*
X68015Y19000D02*
X68815D01*
X68415D01*
Y17800D01*
X69414D02*
X69814D01*
X70014Y18000D01*
Y18400D01*
X69814Y18600D01*
X69414D01*
X69214Y18400D01*
Y18000D01*
X69414Y17800D01*
X70614D02*
X71014D01*
X71214Y18000D01*
Y18400D01*
X71014Y18600D01*
X70614D01*
X70414Y18400D01*
Y18000D01*
X70614Y17800D01*
X71614D02*
X72014D01*
X71814D01*
Y19000D01*
X71614D01*
X74613Y18800D02*
X74413Y19000D01*
X74013D01*
X73813Y18800D01*
Y18600D01*
X74013Y18400D01*
X74413D01*
X74613Y18200D01*
Y18000D01*
X74413Y17800D01*
X74013D01*
X73813Y18000D01*
X75013Y17800D02*
X75412D01*
X75212D01*
Y18600D01*
X75013D01*
X76012D02*
X76812D01*
X76012Y17800D01*
X76812D01*
X77812D02*
X77412D01*
X77212Y18000D01*
Y18400D01*
X77412Y18600D01*
X77812D01*
X78012Y18400D01*
Y18200D01*
X77212D01*
X85263Y17800D02*
Y19000D01*
X85863D01*
X86063Y18800D01*
Y18400D01*
X85863Y18200D01*
X85263D01*
X86463Y17800D02*
X86863D01*
X86663D01*
Y19000D01*
X86463D01*
X87662Y18600D02*
X88062D01*
X88262Y18400D01*
Y17800D01*
X87662D01*
X87463Y18000D01*
X87662Y18200D01*
X88262D01*
X88862Y18800D02*
Y18600D01*
X88662D01*
X89062D01*
X88862D01*
Y18000D01*
X89062Y17800D01*
X90262D02*
X89862D01*
X89662Y18000D01*
Y18400D01*
X89862Y18600D01*
X90262D01*
X90462Y18400D01*
Y18200D01*
X89662D01*
X91661Y19000D02*
Y17800D01*
X91061D01*
X90861Y18000D01*
Y18400D01*
X91061Y18600D01*
X91661D01*
X93821Y19000D02*
Y17800D01*
Y18400D01*
X94621D01*
Y19000D01*
Y17800D01*
X95221D02*
X95621D01*
X95820Y18000D01*
Y18400D01*
X95621Y18600D01*
X95221D01*
X95021Y18400D01*
Y18000D01*
X95221Y17800D01*
X96220D02*
X96620D01*
X96420D01*
Y19000D01*
X96220D01*
X97820Y17800D02*
X97420D01*
X97220Y18000D01*
Y18400D01*
X97420Y18600D01*
X97820D01*
X98020Y18400D01*
Y18200D01*
X97220D01*
X99619Y19000D02*
X100419D01*
X100019D01*
Y17800D01*
X100819Y18600D02*
Y18000D01*
X101019Y17800D01*
X101619D01*
Y17600D01*
X101419Y17400D01*
X101219D01*
X101619Y17800D02*
Y18600D01*
X102018Y17400D02*
Y18600D01*
X102618D01*
X102818Y18400D01*
Y18000D01*
X102618Y17800D01*
X102018D01*
X103818D02*
X103418D01*
X103218Y18000D01*
Y18400D01*
X103418Y18600D01*
X103818D01*
X104018Y18400D01*
Y18200D01*
X103218D01*
X46180Y19600D02*
X106178D01*
X46180Y16900D02*
X106178D01*
X46180Y19600D02*
Y6900D01*
X106178Y19600D02*
Y6900D01*
X55498Y19600D02*
Y6900D01*
X67255Y19600D02*
Y6900D01*
X84503Y19600D02*
Y6900D01*
X93061Y19600D02*
Y6900D01*
X46180Y8900D02*
X106178D01*
X46180Y6900D02*
X106178D01*
D71*
X48411Y13900D02*
G03*
X48411Y13900I-356J0D01*
G01*
M02*
