%FSLAX43Y43*%
%MOMM*%
G71*
G01*
G75*
%ADD10R,0.700X1.200*%
%ADD11R,2.050X0.700*%
%ADD12R,2.050X0.500*%
%ADD13O,1.500X0.600*%
%ADD14R,1.500X0.600*%
%ADD15R,1.800X1.300*%
%ADD16O,0.600X1.500*%
%ADD17R,0.600X1.500*%
%ADD18R,0.450X1.075*%
%ADD19R,1.075X0.450*%
%ADD20C,1.000*%
%ADD21R,1.400X1.000*%
%ADD22R,1.000X1.400*%
%ADD23R,1.400X1.000*%
%ADD24R,1.000X1.400*%
%ADD25C,1.000*%
%ADD26C,0.305*%
%ADD27C,0.300*%
%ADD28C,0.500*%
%ADD29C,0.200*%
%ADD30C,0.254*%
%ADD31O,0.900X1.200*%
%ADD32R,0.900X1.200*%
%ADD33C,1.800*%
%ADD34R,1.800X1.800*%
%ADD35R,1.800X1.800*%
%ADD36C,3.000*%
%ADD37C,2.000*%
%ADD38R,2.000X2.000*%
%ADD39C,0.800*%
%ADD40C,0.600*%
%ADD41C,0.250*%
%ADD42C,0.150*%
%ADD43C,0.100*%
%ADD44C,0.152*%
%ADD45R,0.903X1.403*%
%ADD46R,2.253X0.903*%
%ADD47R,2.253X0.703*%
%ADD48O,1.703X0.803*%
%ADD49R,1.703X0.803*%
%ADD50R,2.003X1.503*%
%ADD51O,0.803X1.703*%
%ADD52R,0.803X1.703*%
%ADD53R,0.653X1.278*%
%ADD54R,1.278X0.653*%
%ADD55C,1.203*%
%ADD56R,1.603X1.203*%
%ADD57R,1.203X1.603*%
%ADD58R,1.603X1.203*%
%ADD59R,1.203X1.603*%
%ADD60O,1.103X1.403*%
%ADD61R,1.103X1.403*%
%ADD62C,2.003*%
%ADD63R,2.003X2.003*%
%ADD64R,2.003X2.003*%
%ADD65C,3.203*%
%ADD66C,2.203*%
%ADD67R,2.203X2.203*%
%ADD68C,1.003*%
%ADD69C,0.169*%
%ADD70C,0.320*%
%ADD71C,0.119*%
D30*
X0Y37000D02*
X46000D01*
Y0D02*
Y37000D01*
X0Y0D02*
X46000D01*
X0D02*
Y37000D01*
D43*
X26089Y32004D02*
X26589D01*
X26339Y31754D02*
Y32254D01*
X32339Y32004D02*
X32839D01*
X32589Y31754D02*
Y32254D01*
X31089Y32004D02*
X31589D01*
X31339Y31754D02*
Y32254D01*
X29839Y32004D02*
X30339D01*
X30089Y31754D02*
Y32254D01*
X28589Y32004D02*
X29089D01*
X28839Y31754D02*
Y32254D01*
X27339Y32004D02*
X27839D01*
X27589Y31754D02*
Y32254D01*
X17026Y6096D02*
X18026D01*
X17526Y5596D02*
Y6596D01*
X14486Y6096D02*
X15486D01*
X14986Y5596D02*
Y6596D01*
X11946Y6096D02*
X12946D01*
X12446Y5596D02*
Y6596D01*
X9406Y6096D02*
X10406D01*
X9906Y5596D02*
Y6596D01*
X39124Y28194D02*
X40124D01*
X39624Y27694D02*
Y28694D01*
X39124Y25654D02*
X40124D01*
X39624Y25154D02*
Y26154D01*
X39124Y23114D02*
X40124D01*
X39624Y22614D02*
Y23614D01*
X39124Y20574D02*
X40124D01*
X39624Y20074D02*
Y21074D01*
X26170Y6096D02*
X27170D01*
X26670Y5596D02*
Y6596D01*
X28710Y6096D02*
X29710D01*
X29210Y5596D02*
Y6596D01*
X31250Y6096D02*
X32250D01*
X31750Y5596D02*
Y6596D01*
X33790Y6096D02*
X34790D01*
X34290Y5596D02*
Y6596D01*
X36330Y6096D02*
X37330D01*
X36830Y5596D02*
Y6596D01*
X23630Y6096D02*
X24630D01*
X24130Y5596D02*
Y6596D01*
X1500Y3000D02*
X4500D01*
X3000Y1500D02*
Y4500D01*
X41500Y3000D02*
X44500D01*
X43000Y1500D02*
Y4500D01*
X41500Y34000D02*
X44500D01*
X43000Y32500D02*
Y35500D01*
X1500Y34000D02*
X4500D01*
X3000Y32500D02*
Y35500D01*
X11536Y9652D02*
X12736D01*
X12136Y9052D02*
Y10252D01*
X8036Y9652D02*
X9236D01*
X8636Y9052D02*
Y10252D01*
X15036Y9652D02*
X16236D01*
X15636Y9052D02*
Y10252D01*
X18536Y9752D02*
X19736D01*
X19136Y9152D02*
Y10352D01*
X17026Y30480D02*
X18026D01*
X17526Y29980D02*
Y30980D01*
X14486Y30480D02*
X15486D01*
X14986Y29980D02*
Y30980D01*
X11946Y30480D02*
X12946D01*
X12446Y29980D02*
Y30980D01*
X9406Y30480D02*
X10406D01*
X9906Y29980D02*
Y30980D01*
X29750Y34200D02*
X30250D01*
X30000Y33950D02*
Y34450D01*
X33050Y18700D02*
X33550D01*
X33300Y18450D02*
Y18950D01*
X6350Y31200D02*
X6850D01*
X6600Y30950D02*
Y31450D01*
X1250Y29100D02*
X1750D01*
X1500Y28850D02*
Y29350D01*
X44000Y20250D02*
X44500D01*
X44250Y20000D02*
Y20500D01*
X44000Y24000D02*
X44500D01*
X44250Y23750D02*
Y24250D01*
X44000Y28250D02*
X44500D01*
X44250Y28000D02*
Y28500D01*
X19250Y16250D02*
X19750D01*
X19500Y16000D02*
Y16500D01*
X17250Y1250D02*
X17750D01*
X17500Y1000D02*
Y1500D01*
X37250Y1250D02*
X37750D01*
X37500Y1000D02*
Y1500D01*
X33750Y1250D02*
X34250D01*
X34000Y1000D02*
Y1500D01*
X30000Y1250D02*
X30500D01*
X30250Y1000D02*
Y1500D01*
X25750Y1250D02*
X26250D01*
X26000Y1000D02*
Y1500D01*
X21250Y15250D02*
X21750D01*
X21500Y15000D02*
Y15500D01*
X21050Y17400D02*
X21550D01*
X21300Y17150D02*
Y17650D01*
X7850Y22200D02*
X8350D01*
X8100Y21950D02*
Y22450D01*
X30350Y26100D02*
X30850D01*
X30600Y25850D02*
Y26350D01*
X26150Y24000D02*
X26650D01*
X26400Y23750D02*
Y24250D01*
X26150Y35400D02*
X26650D01*
X26400Y35150D02*
Y35650D01*
X7850Y35400D02*
X8350D01*
X8100Y35150D02*
Y35650D01*
X11750Y35400D02*
X12250D01*
X12000Y35150D02*
Y35650D01*
X15950Y35400D02*
X16450D01*
X16200Y35150D02*
Y35650D01*
X21050Y35400D02*
X21550D01*
X21300Y35150D02*
Y35650D01*
X6050Y18600D02*
X6550D01*
X6300Y18350D02*
Y18850D01*
X38750Y4500D02*
X39250D01*
X39000Y4250D02*
Y4750D01*
X40850Y7500D02*
X41350D01*
X41100Y7250D02*
Y7750D01*
X29450Y4200D02*
X29950D01*
X29700Y3950D02*
Y4450D01*
X12350Y1200D02*
X12850D01*
X12600Y950D02*
Y1450D01*
X7250Y1200D02*
X7750D01*
X7500Y950D02*
Y1450D01*
X29150Y28200D02*
X29650D01*
X29400Y27950D02*
Y28450D01*
X19300Y20300D02*
X19800D01*
X19550Y20050D02*
Y20550D01*
X24250Y13050D02*
X24750D01*
X24500Y12800D02*
Y13300D01*
X1275Y15350D02*
X1775D01*
X1525Y15100D02*
Y15600D01*
X21425Y23100D02*
X21925D01*
X21675Y22850D02*
Y23350D01*
X21300Y31200D02*
X21800D01*
X21550Y30950D02*
Y31450D01*
X21300Y27575D02*
X21800D01*
X21550Y27325D02*
Y27825D01*
X10275Y26800D02*
X10775D01*
X10525Y26550D02*
Y27050D01*
X37850Y11100D02*
X38350D01*
X38100Y10850D02*
Y11350D01*
X7850Y16800D02*
X8350D01*
X8100Y16550D02*
Y17050D01*
X6350Y16800D02*
X6850D01*
X6600Y16550D02*
Y17050D01*
X15950Y13800D02*
X16450D01*
X16200Y13550D02*
Y14050D01*
X3350Y10800D02*
X3850D01*
X3600Y10550D02*
Y11050D01*
X33050Y12600D02*
X33550D01*
X33300Y12350D02*
Y12850D01*
X34250Y26700D02*
X34750D01*
X34500Y26450D02*
Y26950D01*
X34850Y23600D02*
X35350D01*
X35100Y23350D02*
Y23850D01*
X33350Y17400D02*
X33850D01*
X33600Y17150D02*
Y17650D01*
X27050Y19800D02*
X27550D01*
X27300Y19550D02*
Y20050D01*
X21050Y20100D02*
X21550D01*
X21300Y19850D02*
Y20350D01*
X36150Y18800D02*
X36650D01*
X36400Y18550D02*
Y19050D01*
X28250Y14400D02*
X28750D01*
X28500Y14150D02*
Y14650D01*
X32050Y21300D02*
X32550D01*
X32300Y21050D02*
Y21550D01*
X34950Y21900D02*
X35450D01*
X35200Y21650D02*
Y22150D01*
X26750Y14848D02*
X27250D01*
X27000Y14598D02*
Y15098D01*
X26750Y25200D02*
X27250D01*
X27000Y24950D02*
Y25450D01*
X31550Y22631D02*
X32050D01*
X31800Y22381D02*
Y22881D01*
X28550Y22800D02*
X29050D01*
X28800Y22550D02*
Y23050D01*
X39050Y16800D02*
X39550D01*
X39300Y16550D02*
Y17050D01*
X39950Y18300D02*
X40450D01*
X40200Y18050D02*
Y18550D01*
X32750Y30000D02*
X33250D01*
X33000Y29750D02*
Y30250D01*
X1050Y24875D02*
X1550D01*
X1300Y24625D02*
Y25125D01*
X1175Y19800D02*
X1675D01*
X1425Y19550D02*
Y20050D01*
X1250Y9900D02*
X1750D01*
X1500Y9650D02*
Y10150D01*
X4250Y16800D02*
X4750D01*
X4500Y16550D02*
Y17050D01*
X10250Y16800D02*
X10750D01*
X10500Y16550D02*
Y17050D01*
X34550Y35400D02*
X35050D01*
X34800Y35150D02*
Y35650D01*
X38150Y35400D02*
X38650D01*
X38400Y35150D02*
Y35650D01*
X38150Y32100D02*
X38650D01*
X38400Y31850D02*
Y32350D01*
X43550Y7500D02*
X44050D01*
X43800Y7250D02*
Y7750D01*
X41750Y10800D02*
X42250D01*
X42000Y10550D02*
Y11050D01*
X23150Y21600D02*
X23650D01*
X23400Y21350D02*
Y21850D01*
X30050Y35400D02*
X30550D01*
X30300Y35150D02*
Y35650D01*
X6050Y11100D02*
X6550D01*
X6300Y10850D02*
Y11350D01*
M02*
