%FSLAX43Y43*%
%MOMM*%
G71*
G01*
G75*
G04 Layer_Physical_Order=2*
G04 Layer_Color=16711680*
%ADD10R,0.700X1.200*%
%ADD11R,2.050X0.700*%
%ADD12R,2.050X0.500*%
%ADD13O,1.500X0.600*%
%ADD14R,1.500X0.600*%
%ADD15R,1.800X1.300*%
%ADD16O,0.600X1.500*%
%ADD17R,0.600X1.500*%
%ADD18R,0.450X1.075*%
%ADD19R,1.075X0.450*%
%ADD20C,1.000*%
%ADD21R,1.400X1.000*%
%ADD22R,1.000X1.400*%
%ADD23R,1.400X1.000*%
%ADD24R,1.000X1.400*%
%ADD25C,1.000*%
%ADD26C,0.305*%
%ADD27C,0.300*%
%ADD28C,0.500*%
%ADD29C,0.200*%
%ADD30C,0.254*%
%ADD31O,0.900X1.200*%
%ADD32R,0.900X1.200*%
%ADD33C,1.800*%
%ADD34R,1.800X1.800*%
%ADD35R,1.800X1.800*%
%ADD36C,3.000*%
%ADD37C,2.000*%
%ADD38R,2.000X2.000*%
%ADD39C,0.800*%
G36*
X42289Y28764D02*
Y18691D01*
X40859Y17261D01*
X39828D01*
X39799Y17299D01*
X39653Y17411D01*
X39483Y17482D01*
X39300Y17506D01*
X39117Y17482D01*
X38947Y17411D01*
X38801Y17299D01*
X38689Y17153D01*
X38618Y16983D01*
X38594Y16800D01*
X38618Y16617D01*
X38689Y16447D01*
X38801Y16301D01*
X38947Y16189D01*
X39117Y16118D01*
X39300Y16094D01*
X39483Y16118D01*
X39653Y16189D01*
X39799Y16301D01*
X39828Y16339D01*
X41050D01*
X41227Y16374D01*
X41376Y16474D01*
Y16474D01*
X41376D01*
D01*
D01*
D01*
D01*
D01*
D01*
X41376D01*
D01*
X41376D01*
Y16474D01*
D01*
D01*
D01*
D01*
Y16474D01*
D01*
D01*
D01*
D01*
D01*
D01*
Y16474D01*
D01*
D01*
X41376D01*
D01*
D01*
D01*
X43076Y18174D01*
X43176Y18323D01*
X43211Y18500D01*
D01*
D01*
D01*
D01*
D01*
X43211D01*
D01*
D01*
D01*
D01*
Y18500D01*
X43211D01*
D01*
Y18500D01*
D01*
D01*
D01*
D01*
D01*
D01*
D01*
D01*
D01*
D01*
D01*
D01*
Y18500D01*
D01*
X43211D01*
D01*
D01*
D01*
D01*
X43211Y18500D01*
Y28955D01*
X43176Y29132D01*
X43076Y29282D01*
X41638Y30720D01*
X41708Y30826D01*
X41938Y30731D01*
X42462Y30605D01*
X43000Y30562D01*
X43538Y30605D01*
X44062Y30731D01*
X44561Y30937D01*
X45021Y31219D01*
X45385Y31530D01*
X45500Y31477D01*
Y5523D01*
X45385Y5470D01*
X45021Y5781D01*
X44561Y6063D01*
X44062Y6269D01*
X43538Y6395D01*
X43000Y6438D01*
X42462Y6395D01*
X41938Y6269D01*
X41439Y6063D01*
X40979Y5781D01*
X40569Y5431D01*
X40219Y5021D01*
X39937Y4561D01*
X39731Y4062D01*
X39605Y3538D01*
X39562Y3000D01*
X39605Y2462D01*
X39731Y1938D01*
X39937Y1439D01*
X40219Y979D01*
X40530Y615D01*
X40477Y500D01*
X21000D01*
Y1893D01*
X30600D01*
X30809Y1921D01*
X31003Y2001D01*
X31171Y2129D01*
X32371Y3329D01*
X32499Y3497D01*
X32579Y3691D01*
X32607Y3900D01*
Y5242D01*
X32798Y5491D01*
X32919Y5783D01*
X32960Y6096D01*
X32919Y6409D01*
X32798Y6701D01*
X32606Y6952D01*
X32557Y6989D01*
Y7916D01*
X35152Y10510D01*
X35280Y10678D01*
X35360Y10872D01*
X35388Y11081D01*
Y17400D01*
Y20707D01*
X35360Y20916D01*
X35481Y20966D01*
X37339Y19109D01*
Y13200D01*
X37339Y13200D01*
X37339D01*
X37374Y13023D01*
X37474Y12874D01*
X38554Y11794D01*
X38470Y11698D01*
X38453Y11711D01*
X38283Y11782D01*
X38100Y11806D01*
X37917Y11782D01*
X37747Y11711D01*
X37601Y11599D01*
X37570Y11559D01*
X37390D01*
X36859Y12090D01*
Y18270D01*
X36899Y18301D01*
X37011Y18447D01*
X37082Y18617D01*
X37106Y18800D01*
X37082Y18983D01*
X37011Y19153D01*
X36899Y19299D01*
X36753Y19411D01*
X36583Y19482D01*
X36400Y19506D01*
X36217Y19482D01*
X36047Y19411D01*
X35901Y19299D01*
X35788Y19153D01*
X35718Y18983D01*
X35694Y18800D01*
X35718Y18617D01*
X35788Y18447D01*
X35901Y18301D01*
X35941Y18270D01*
Y11900D01*
X35941Y11900D01*
X35941D01*
X35976Y11724D01*
X36076Y11576D01*
X36876Y10776D01*
X37024Y10676D01*
X37200Y10641D01*
X37570D01*
X37601Y10601D01*
X37747Y10489D01*
X37917Y10418D01*
X38100Y10394D01*
X38283Y10418D01*
X38453Y10489D01*
X38599Y10601D01*
X38711Y10747D01*
X38782Y10917D01*
X38806Y11100D01*
X38782Y11283D01*
X38711Y11453D01*
X38698Y11470D01*
X38794Y11554D01*
X40639Y9709D01*
Y8028D01*
X40601Y7999D01*
X40489Y7853D01*
X40418Y7683D01*
X40394Y7500D01*
X40418Y7317D01*
X40489Y7147D01*
X40601Y7001D01*
X40747Y6889D01*
X40917Y6818D01*
X41100Y6794D01*
X41283Y6818D01*
X41453Y6889D01*
X41599Y7001D01*
X41711Y7147D01*
X41782Y7317D01*
X41806Y7500D01*
X41782Y7683D01*
X41711Y7853D01*
X41599Y7999D01*
X41561Y8028D01*
Y9900D01*
X41526Y10077D01*
X41426Y10226D01*
X41426Y10226D01*
D01*
D01*
D01*
D01*
X41426Y10226D01*
D01*
D01*
X41426D01*
X38261Y13391D01*
Y19300D01*
X38226Y19476D01*
X38126Y19626D01*
X38126Y19626D01*
D01*
D01*
D01*
D01*
X38126Y19626D01*
D01*
D01*
X38126D01*
X35900Y21852D01*
X35906Y21900D01*
X35882Y22083D01*
X35811Y22253D01*
X35699Y22399D01*
X35553Y22511D01*
X35383Y22582D01*
X35200Y22606D01*
X35017Y22582D01*
X34847Y22511D01*
X34840Y22506D01*
X34726Y22562D01*
Y22785D01*
X34734Y22793D01*
X35100D01*
X35309Y22821D01*
X35503Y22901D01*
X35671Y23029D01*
X35799Y23197D01*
X35879Y23391D01*
X35907Y23600D01*
X35879Y23809D01*
X35799Y24003D01*
X35782Y24025D01*
X35839Y24139D01*
X36490D01*
X37841Y22788D01*
X37990Y22688D01*
X38167Y22653D01*
X38167Y22653D01*
X38516D01*
X38576Y22509D01*
X38768Y22258D01*
X39019Y22066D01*
X39311Y21945D01*
X39624Y21904D01*
X39937Y21945D01*
X40229Y22066D01*
X40480Y22258D01*
X40518Y22308D01*
X40639Y22268D01*
Y21774D01*
X38424D01*
Y19374D01*
X40459D01*
X40508Y19257D01*
X40251Y18999D01*
X40200Y19006D01*
X40017Y18982D01*
X39847Y18911D01*
X39701Y18799D01*
X39589Y18653D01*
X39518Y18483D01*
X39494Y18300D01*
X39518Y18117D01*
X39589Y17947D01*
X39701Y17801D01*
X39847Y17689D01*
X40017Y17618D01*
X40200Y17594D01*
X40383Y17618D01*
X40553Y17689D01*
X40699Y17801D01*
X40811Y17947D01*
X40882Y18117D01*
X40906Y18300D01*
X40899Y18351D01*
X41416Y18867D01*
X41426Y18874D01*
X41526Y19023D01*
X41561Y19200D01*
Y29100D01*
X41526Y29277D01*
X41426Y29426D01*
X41416Y29433D01*
X40524Y30324D01*
X40376Y30424D01*
X40200Y30459D01*
X33530D01*
X33499Y30499D01*
X33353Y30611D01*
X33183Y30682D01*
X33000Y30706D01*
X32817Y30682D01*
X32647Y30611D01*
X32501Y30499D01*
X32389Y30353D01*
X32318Y30183D01*
X32294Y30000D01*
X32318Y29817D01*
X32389Y29647D01*
X32501Y29501D01*
X32647Y29389D01*
X32817Y29318D01*
X33000Y29294D01*
X33183Y29318D01*
X33353Y29389D01*
X33499Y29501D01*
X33530Y29541D01*
X40010D01*
X40639Y28912D01*
Y26500D01*
X40518Y26460D01*
X40480Y26510D01*
X40229Y26702D01*
X39937Y26823D01*
X39624Y26864D01*
X39311Y26823D01*
X39019Y26702D01*
X38768Y26510D01*
X38576Y26259D01*
X38521Y26128D01*
X35213D01*
X35157Y26242D01*
X35199Y26297D01*
X35279Y26491D01*
X35307Y26700D01*
X35279Y26909D01*
X35199Y27103D01*
X35071Y27271D01*
X34903Y27399D01*
X34709Y27479D01*
X34500Y27507D01*
X32734D01*
X32146Y28095D01*
Y31104D01*
X33339D01*
Y32904D01*
X31839D01*
Y32859D01*
X31725Y32803D01*
X31717Y32809D01*
X31535Y32885D01*
X31339Y32910D01*
X31143Y32885D01*
X30961Y32809D01*
X30804Y32689D01*
X30778Y32654D01*
X30650D01*
X30624Y32689D01*
X30550Y32745D01*
Y33739D01*
X37314D01*
X42289Y28764D01*
D02*
G37*
G36*
X29492Y16833D02*
X27929Y15271D01*
X27801Y15103D01*
X27790Y15076D01*
X27663D01*
X27611Y15201D01*
X27499Y15347D01*
X27353Y15459D01*
X27183Y15530D01*
X27000Y15554D01*
X26817Y15530D01*
X26647Y15459D01*
X26501Y15347D01*
X26389Y15201D01*
X26318Y15031D01*
X26294Y14848D01*
X26318Y14665D01*
X26389Y14495D01*
X26501Y14349D01*
X26539Y14319D01*
Y10431D01*
X23804Y7696D01*
X23704Y7547D01*
X23669Y7370D01*
Y7296D01*
X22930D01*
Y4896D01*
X25330D01*
Y7296D01*
X24874D01*
X24826Y7413D01*
X27326Y9914D01*
X27426Y10063D01*
X27461Y10240D01*
D01*
D01*
D01*
D01*
D01*
X27461D01*
D01*
D01*
D01*
D01*
Y10240D01*
X27461D01*
D01*
Y10240D01*
D01*
D01*
D01*
D01*
D01*
D01*
D01*
D01*
D01*
D01*
D01*
D01*
Y10240D01*
D01*
X27461D01*
D01*
D01*
D01*
D01*
X27461Y10240D01*
Y14319D01*
X27499Y14349D01*
X27573Y14444D01*
X27693Y14404D01*
Y14400D01*
X27721Y14191D01*
X27801Y13997D01*
X27929Y13829D01*
X28097Y13701D01*
X28291Y13621D01*
X28500Y13593D01*
X28709Y13621D01*
X28903Y13701D01*
X29071Y13829D01*
X29199Y13997D01*
X29279Y14191D01*
X29302Y14361D01*
X31534Y16593D01*
X33774D01*
Y13262D01*
X33660Y13206D01*
X33653Y13211D01*
X33483Y13282D01*
X33300Y13306D01*
X33117Y13282D01*
X32947Y13211D01*
X32801Y13099D01*
X32689Y12953D01*
X32618Y12783D01*
X32594Y12600D01*
X32618Y12417D01*
X32689Y12247D01*
X32801Y12101D01*
X32839Y12072D01*
Y11481D01*
X28884Y7526D01*
X28784Y7377D01*
X28750Y7204D01*
X28605Y7144D01*
X28354Y6952D01*
X28162Y6701D01*
X28041Y6409D01*
X28003Y6125D01*
X28003D01*
X27902D01*
X27873Y6150D01*
X27839Y6409D01*
X27718Y6701D01*
X27526Y6952D01*
X27275Y7144D01*
X26983Y7265D01*
X26670Y7306D01*
X26357Y7265D01*
X26065Y7144D01*
X25814Y6952D01*
X25622Y6701D01*
X25501Y6409D01*
X25460Y6096D01*
X25501Y5783D01*
X25622Y5491D01*
X25814Y5240D01*
X26065Y5048D01*
X26357Y4927D01*
X26670Y4886D01*
X26983Y4927D01*
X27275Y5048D01*
X27526Y5240D01*
X27718Y5491D01*
X27839Y5783D01*
X27876Y6067D01*
X27978D01*
X28007Y6042D01*
X28041Y5783D01*
X28162Y5491D01*
X28354Y5240D01*
X28605Y5048D01*
X28897Y4927D01*
X29210Y4886D01*
X29523Y4927D01*
X29815Y5048D01*
X30066Y5240D01*
X30258Y5491D01*
X30379Y5783D01*
X30417Y6067D01*
X30544D01*
X30581Y5783D01*
X30702Y5491D01*
X30894Y5240D01*
X30993Y5164D01*
Y4234D01*
X30266Y3507D01*
X21000D01*
Y16652D01*
X21106Y16723D01*
X21117Y16718D01*
X21300Y16694D01*
X21483Y16718D01*
X21653Y16789D01*
X21799Y16901D01*
X21828Y16939D01*
X29400D01*
X29432Y16945D01*
X29492Y16833D01*
D02*
G37*
G36*
X22500Y22500D02*
X20500Y20500D01*
Y19328D01*
X8667D01*
X8490Y19293D01*
X8340Y19193D01*
X6647Y17500D01*
X6600Y17506D01*
X6417Y17482D01*
X6247Y17411D01*
X6101Y17299D01*
X5989Y17153D01*
X5918Y16983D01*
X5894Y16800D01*
X5918Y16617D01*
X5989Y16447D01*
X6101Y16301D01*
X6247Y16189D01*
X6417Y16118D01*
X6600Y16094D01*
X6783Y16118D01*
X6953Y16189D01*
X7099Y16301D01*
X7211Y16447D01*
X7282Y16617D01*
X7286Y16652D01*
X7413D01*
X7418Y16617D01*
X7489Y16447D01*
X7601Y16301D01*
X7747Y16189D01*
X7917Y16118D01*
X8100Y16094D01*
X8283Y16118D01*
X8453Y16189D01*
X8599Y16301D01*
X8711Y16447D01*
X8782Y16617D01*
X8806Y16800D01*
X8800Y16847D01*
X9743Y17791D01*
X20500D01*
Y3507D01*
X10234D01*
X8962Y4779D01*
X9011Y4896D01*
X11106D01*
Y7296D01*
X8706D01*
Y5201D01*
X8589Y5152D01*
X4407Y9334D01*
Y10800D01*
D01*
D01*
D01*
D01*
X4407D01*
D01*
D01*
D01*
D01*
Y10800D01*
X4407D01*
D01*
Y10800D01*
D01*
D01*
D01*
D01*
D01*
D01*
D01*
D01*
D01*
D01*
D01*
D01*
Y10800D01*
D01*
X4407D01*
D01*
D01*
D01*
D01*
X4407Y10800D01*
Y11666D01*
X5734Y12993D01*
X16200D01*
X16409Y13021D01*
X16603Y13101D01*
X16771Y13229D01*
X16899Y13397D01*
X16979Y13591D01*
X17007Y13800D01*
X16979Y14009D01*
X16899Y14203D01*
X16771Y14371D01*
X16603Y14499D01*
X16409Y14579D01*
X16200Y14607D01*
X5400D01*
X5191Y14579D01*
X4997Y14499D01*
X4829Y14371D01*
X3029Y12571D01*
X2901Y12403D01*
X2821Y12209D01*
X2793Y12000D01*
Y10800D01*
X2793Y10800D01*
X2793D01*
Y9000D01*
X2793Y9000D01*
X2793D01*
X2821Y8791D01*
X2901Y8597D01*
X3029Y8429D01*
X9329Y2129D01*
X9329Y2129D01*
X9329D01*
X9329Y2129D01*
X9329D01*
X9329Y2129D01*
Y2129D01*
Y2129D01*
D01*
D01*
X9329D01*
Y2129D01*
X9497Y2001D01*
X9691Y1921D01*
X9900Y1893D01*
X20500D01*
Y500D01*
X5523D01*
X5470Y615D01*
X5781Y979D01*
X6063Y1439D01*
X6269Y1938D01*
X6395Y2462D01*
X6438Y3000D01*
X6395Y3538D01*
X6269Y4062D01*
X6063Y4561D01*
X5781Y5021D01*
X5431Y5431D01*
X5021Y5781D01*
X4561Y6063D01*
X4062Y6269D01*
X3538Y6395D01*
X3000Y6438D01*
X2462Y6395D01*
X1938Y6269D01*
X1439Y6063D01*
X979Y5781D01*
X615Y5470D01*
X500Y5523D01*
Y31477D01*
X615Y31530D01*
X979Y31219D01*
X1439Y30937D01*
X1938Y30731D01*
X2462Y30605D01*
X3000Y30562D01*
X3538Y30605D01*
X4062Y30731D01*
X4561Y30937D01*
X5021Y31219D01*
X5431Y31569D01*
X5781Y31979D01*
X6063Y32439D01*
X6269Y32938D01*
X6395Y33462D01*
X6438Y34000D01*
X6395Y34538D01*
X6269Y35062D01*
X6063Y35561D01*
X5781Y36021D01*
X5431Y36431D01*
X5456Y36500D01*
X22500D01*
Y22500D01*
D02*
G37*
G36*
X40530Y36385D02*
X40219Y36021D01*
X39937Y35561D01*
X39731Y35062D01*
X39605Y34538D01*
X39562Y34000D01*
X39605Y33462D01*
X39731Y32938D01*
X39826Y32708D01*
X39720Y32638D01*
X37832Y34526D01*
X37682Y34626D01*
X37506Y34661D01*
X30528D01*
X30499Y34699D01*
X30353Y34811D01*
X30183Y34882D01*
X30000Y34906D01*
X29817Y34882D01*
X29647Y34811D01*
X29501Y34699D01*
X29389Y34553D01*
X29318Y34383D01*
X29294Y34200D01*
X29318Y34017D01*
X29389Y33847D01*
X29501Y33701D01*
X29628Y33603D01*
Y32745D01*
X29554Y32689D01*
X29528Y32654D01*
X29400D01*
X29374Y32689D01*
X29217Y32809D01*
X29035Y32885D01*
X28839Y32910D01*
X28643Y32885D01*
X28461Y32809D01*
X28304Y32689D01*
X28278Y32654D01*
X28150D01*
X28124Y32689D01*
X27967Y32809D01*
X27785Y32885D01*
X27589Y32910D01*
X27393Y32885D01*
X27211Y32809D01*
X27054Y32689D01*
X26934Y32532D01*
X26858Y32350D01*
X26833Y32154D01*
Y31854D01*
X26858Y31658D01*
X26934Y31476D01*
X27054Y31319D01*
X27139Y31254D01*
Y25984D01*
X27043Y25900D01*
X27000Y25906D01*
X26817Y25882D01*
X26647Y25811D01*
X26501Y25699D01*
X26389Y25553D01*
X26318Y25383D01*
X26294Y25200D01*
X26318Y25017D01*
X26389Y24847D01*
X26501Y24701D01*
X26647Y24589D01*
X26817Y24518D01*
X27000Y24494D01*
X27183Y24518D01*
X27353Y24589D01*
X27499Y24701D01*
X27611Y24847D01*
X27682Y25017D01*
X27684Y25032D01*
X27926Y25274D01*
X28026Y25423D01*
X28061Y25600D01*
Y31271D01*
X28124Y31319D01*
X28150Y31354D01*
X28278D01*
X28304Y31319D01*
X28461Y31199D01*
X28643Y31123D01*
X28839Y31098D01*
X29035Y31123D01*
X29217Y31199D01*
X29374Y31319D01*
X29400Y31354D01*
X29528D01*
X29554Y31319D01*
X29711Y31199D01*
X29893Y31123D01*
X30089Y31098D01*
X30285Y31123D01*
X30427Y31182D01*
X30532Y31111D01*
Y27761D01*
X30532Y27761D01*
X30532D01*
X30560Y27552D01*
X30640Y27358D01*
X30768Y27190D01*
X31667Y26292D01*
X31667Y26128D01*
X31490Y26093D01*
X31340Y25993D01*
X28847Y23500D01*
X28800Y23506D01*
X28617Y23482D01*
X28447Y23411D01*
X28301Y23299D01*
X28189Y23153D01*
X28118Y22983D01*
X28094Y22800D01*
X28118Y22617D01*
X28189Y22447D01*
X28301Y22301D01*
X28447Y22189D01*
X28617Y22118D01*
X28800Y22094D01*
X28983Y22118D01*
X29153Y22189D01*
X29299Y22301D01*
X29411Y22447D01*
X29482Y22617D01*
X29506Y22800D01*
X29500Y22847D01*
X31858Y25205D01*
X38511D01*
X38576Y25049D01*
X38768Y24798D01*
X39019Y24606D01*
X39311Y24485D01*
X39595Y24448D01*
Y24320D01*
X39311Y24283D01*
X39019Y24162D01*
X38768Y23970D01*
X38576Y23719D01*
X38516Y23575D01*
X38358D01*
X37007Y24926D01*
X36857Y25026D01*
X36681Y25061D01*
X33381D01*
X33368Y25059D01*
X32567D01*
X32391Y25024D01*
X32242Y24924D01*
X27696Y20378D01*
X27653Y20411D01*
X27483Y20482D01*
X27300Y20506D01*
X27117Y20482D01*
X26947Y20411D01*
X26801Y20299D01*
X26689Y20153D01*
X26618Y19983D01*
X26594Y19800D01*
X26618Y19617D01*
X26689Y19447D01*
X26693Y19442D01*
X26636Y19328D01*
X21591D01*
X21566Y19452D01*
X21653Y19489D01*
X21799Y19601D01*
X21828Y19639D01*
X24000D01*
X24177Y19674D01*
X24326Y19774D01*
X29726Y25174D01*
X29826Y25323D01*
X29861Y25500D01*
D01*
D01*
D01*
D01*
D01*
X29861D01*
D01*
D01*
D01*
D01*
Y25500D01*
X29861D01*
D01*
Y25500D01*
D01*
D01*
D01*
D01*
D01*
D01*
D01*
D01*
D01*
D01*
D01*
D01*
Y25500D01*
D01*
X29861D01*
D01*
D01*
D01*
D01*
X29861Y25500D01*
Y27672D01*
X29899Y27701D01*
X30011Y27847D01*
X30082Y28017D01*
X30106Y28200D01*
X30082Y28383D01*
X30011Y28553D01*
X29899Y28699D01*
X29753Y28811D01*
X29583Y28882D01*
X29400Y28906D01*
X29217Y28882D01*
X29047Y28811D01*
X28901Y28699D01*
X28789Y28553D01*
X28718Y28383D01*
X28694Y28200D01*
X28718Y28017D01*
X28789Y27847D01*
X28901Y27701D01*
X28939Y27672D01*
Y25691D01*
X23809Y20561D01*
X21828D01*
X21799Y20599D01*
X21653Y20711D01*
X21483Y20782D01*
X21448Y20787D01*
X21407Y20907D01*
X23000Y22500D01*
Y22500D01*
Y36500D01*
X40477D01*
X40530Y36385D01*
D02*
G37*
%LPC*%
G36*
X12136Y10963D02*
X11797Y10919D01*
X11480Y10788D01*
X11209Y10579D01*
X11000Y10308D01*
X10869Y9991D01*
X10825Y9652D01*
X10869Y9313D01*
X11000Y8996D01*
X11209Y8725D01*
X11480Y8516D01*
X11797Y8385D01*
X12136Y8341D01*
X12475Y8385D01*
X12792Y8516D01*
X13063Y8725D01*
X13272Y8996D01*
X13403Y9313D01*
X13447Y9652D01*
X13403Y9991D01*
X13272Y10308D01*
X13063Y10579D01*
X12792Y10788D01*
X12475Y10919D01*
X12136Y10963D01*
D02*
G37*
G36*
X36830Y7306D02*
X36517Y7265D01*
X36225Y7144D01*
X35974Y6952D01*
X35782Y6701D01*
X35661Y6409D01*
X35620Y6096D01*
X35661Y5783D01*
X35782Y5491D01*
X35974Y5240D01*
X36225Y5048D01*
X36517Y4927D01*
X36830Y4886D01*
X37143Y4927D01*
X37435Y5048D01*
X37686Y5240D01*
X37878Y5491D01*
X37999Y5783D01*
X38040Y6096D01*
X37999Y6409D01*
X37878Y6701D01*
X37686Y6952D01*
X37435Y7144D01*
X37143Y7265D01*
X36830Y7306D01*
D02*
G37*
G36*
X14986Y7306D02*
X14673Y7265D01*
X14381Y7144D01*
X14130Y6952D01*
X13938Y6701D01*
X13817Y6409D01*
X13780Y6125D01*
X13779D01*
X13678D01*
X13649Y6150D01*
X13615Y6409D01*
X13494Y6701D01*
X13302Y6952D01*
X13051Y7144D01*
X12759Y7265D01*
X12446Y7306D01*
X12133Y7265D01*
X11841Y7144D01*
X11590Y6952D01*
X11398Y6701D01*
X11277Y6409D01*
X11236Y6096D01*
X11277Y5783D01*
X11398Y5491D01*
X11590Y5240D01*
X11841Y5048D01*
X12133Y4927D01*
X12446Y4886D01*
X12759Y4927D01*
X13051Y5048D01*
X13302Y5240D01*
X13494Y5491D01*
X13615Y5783D01*
X13653Y6067D01*
X13754D01*
X13783Y6042D01*
X13817Y5783D01*
X13938Y5491D01*
X14130Y5240D01*
X14381Y5048D01*
X14673Y4927D01*
X14986Y4886D01*
X15299Y4927D01*
X15591Y5048D01*
X15842Y5240D01*
X16034Y5491D01*
X16155Y5783D01*
X16196Y6096D01*
X16155Y6409D01*
X16034Y6701D01*
X15842Y6952D01*
X15591Y7144D01*
X15299Y7265D01*
X14986Y7306D01*
D02*
G37*
G36*
X15636Y10963D02*
X15297Y10919D01*
X14980Y10788D01*
X14709Y10579D01*
X14500Y10308D01*
X14369Y9991D01*
X14325Y9652D01*
X14369Y9313D01*
X14500Y8996D01*
X14709Y8725D01*
X14980Y8516D01*
X15297Y8385D01*
X15636Y8341D01*
X15975Y8385D01*
X16292Y8516D01*
X16563Y8725D01*
X16772Y8996D01*
X16903Y9313D01*
X16947Y9652D01*
X16903Y9991D01*
X16772Y10308D01*
X16563Y10579D01*
X16292Y10788D01*
X15975Y10919D01*
X15636Y10963D01*
D02*
G37*
G36*
X12446Y31690D02*
X12133Y31649D01*
X11841Y31528D01*
X11590Y31336D01*
X11398Y31085D01*
X11277Y30793D01*
X11240Y30509D01*
X11240D01*
X11138D01*
X11109Y30534D01*
X11075Y30793D01*
X10954Y31085D01*
X10762Y31336D01*
X10511Y31528D01*
X10219Y31649D01*
X9906Y31690D01*
X9593Y31649D01*
X9301Y31528D01*
X9050Y31336D01*
X8858Y31085D01*
X8737Y30793D01*
X8696Y30480D01*
X8737Y30167D01*
X8858Y29875D01*
X9050Y29624D01*
X9301Y29432D01*
X9593Y29311D01*
X9906Y29270D01*
X10219Y29311D01*
X10511Y29432D01*
X10762Y29624D01*
X10954Y29875D01*
X11075Y30167D01*
X11113Y30451D01*
X11214D01*
X11243Y30426D01*
X11277Y30167D01*
X11398Y29875D01*
X11590Y29624D01*
X11841Y29432D01*
X12133Y29311D01*
X12446Y29270D01*
X12759Y29311D01*
X13051Y29432D01*
X13302Y29624D01*
X13494Y29875D01*
X13615Y30167D01*
X13656Y30480D01*
X13615Y30793D01*
X13494Y31085D01*
X13302Y31336D01*
X13051Y31528D01*
X12759Y31649D01*
X12446Y31690D01*
D02*
G37*
G36*
X18726Y31680D02*
X16326D01*
Y29280D01*
X18726D01*
Y31680D01*
D02*
G37*
G36*
X9936Y10952D02*
X7336D01*
Y8352D01*
X9936D01*
Y10952D01*
D02*
G37*
%LPD*%
D25*
X34581Y17400D02*
Y20707D01*
X33919Y21369D02*
X34581Y20707D01*
X33919Y21369D02*
Y23119D01*
X34581Y11081D02*
Y17400D01*
X31750Y8250D02*
X34581Y11081D01*
X5400Y13800D02*
X16200D01*
X3600Y12000D02*
X5400Y13800D01*
X3600Y10800D02*
Y12000D01*
X31750Y6096D02*
X31800Y6046D01*
Y3900D02*
Y6046D01*
X30600Y2700D02*
X31800Y3900D01*
X9900Y2700D02*
X30600D01*
X3600Y9000D02*
X9900Y2700D01*
X3600Y9000D02*
Y10800D01*
X18600Y4200D02*
X29700D01*
X17526Y5274D02*
X18600Y4200D01*
X17526Y5274D02*
Y6604D01*
X34290Y4590D02*
Y6096D01*
X31200Y17400D02*
X33600D01*
X28500Y14400D02*
Y14700D01*
X31200Y17400D01*
X31339Y27761D02*
Y32004D01*
Y27761D02*
X32400Y26700D01*
X39483Y20433D02*
X39624Y20574D01*
X33600Y17400D02*
X34581D01*
X33919Y23119D02*
X34400Y23600D01*
X35100D01*
X31750Y6096D02*
Y8250D01*
X32400Y26700D02*
X34500D01*
D26*
X30000Y34200D02*
X30000Y34200D01*
X30089D01*
X24130Y7370D02*
X27000Y10240D01*
Y14848D01*
X28036Y18867D02*
X31800Y22631D01*
X9552Y18252D02*
X29252D01*
X32300Y21300D01*
X29400Y17400D02*
X30700Y18700D01*
X21300Y17400D02*
X29400D01*
X30700Y18700D02*
X33300D01*
X30089Y34200D02*
Y34289D01*
Y32004D02*
Y34200D01*
X37506D01*
X42750Y28955D01*
Y18500D02*
Y28955D01*
X41050Y16800D02*
X42750Y18500D01*
X39300Y16800D02*
X41050D01*
X41100Y7500D02*
Y9900D01*
X37800Y13200D02*
X41100Y9900D01*
X8667Y18867D02*
X28036D01*
X24000Y20100D02*
X29400Y25500D01*
Y28200D01*
X21300Y20100D02*
X24000D01*
X27600Y25600D02*
Y31993D01*
X6600Y16800D02*
X8667Y18867D01*
X6600Y16800D02*
Y16800D01*
X27589Y32004D02*
X27600Y31993D01*
X29210Y6096D02*
Y7200D01*
X33300Y12600D02*
X33300D01*
X29210Y7200D02*
X33300Y11290D01*
Y12600D01*
X39611Y25667D02*
X39624Y25654D01*
X27000Y25200D02*
X27200D01*
X27600Y25600D01*
X24130Y6096D02*
Y6250D01*
Y7370D01*
X33381Y24600D02*
X36681D01*
X38167Y23114D01*
X39624D01*
X37800Y13200D02*
Y19300D01*
X35200Y21900D02*
X37800Y19300D01*
X41100Y19200D02*
Y29100D01*
X28800Y22800D02*
Y22800D01*
X31667Y25667D01*
X39611D01*
X8100Y16800D02*
X9552Y18252D01*
D27*
X27767Y19800D02*
X32567Y24600D01*
X33381D01*
X21550Y15250D02*
X21650Y15350D01*
X21500Y15250D02*
X21550D01*
X23425Y14125D02*
X24500Y13050D01*
X22250Y15300D02*
X23425Y14125D01*
X21500Y15250D02*
X21500D01*
X21600Y15300D02*
Y15300D01*
X21603Y15300D02*
X22250D01*
X21600D02*
X21603D01*
Y15300D01*
X21600Y15300D02*
X21603D01*
X21600Y15300D02*
X21600Y15300D01*
X26339Y32004D02*
Y35339D01*
X26400Y35400D01*
X6000Y18600D02*
X6300D01*
X4500Y20100D02*
Y25425D01*
Y20100D02*
X6000Y18600D01*
X5875Y26800D02*
X10525D01*
X4500Y25425D02*
X5875Y26800D01*
X9400Y15700D02*
X10500Y16800D01*
X5025Y15700D02*
X9400D01*
X4500Y16225D02*
X5025Y15700D01*
X4500Y16225D02*
Y16800D01*
X37200Y11100D02*
X38100D01*
X36400Y11900D02*
X37200Y11100D01*
X36400Y11900D02*
Y18800D01*
X40200Y30000D02*
X41100Y29100D01*
X33000Y30000D02*
X40200D01*
X40200Y18300D02*
X41100Y19200D01*
X27300Y19800D02*
X27767D01*
D29*
X300Y-1800D02*
Y-800D01*
X800D01*
X966Y-967D01*
Y-1300D01*
X800Y-1467D01*
X300D01*
X1966Y-967D02*
X1800Y-800D01*
X1466D01*
X1300Y-967D01*
Y-1633D01*
X1466Y-1800D01*
X1800D01*
X1966Y-1633D01*
X2299Y-800D02*
Y-1800D01*
X2799D01*
X2966Y-1633D01*
Y-1467D01*
X2799Y-1300D01*
X2299D01*
X2799D01*
X2966Y-1134D01*
Y-967D01*
X2799Y-800D01*
X2299D01*
X4965Y-967D02*
X4799Y-800D01*
X4465D01*
X4299Y-967D01*
Y-1134D01*
X4465Y-1300D01*
X4799D01*
X4965Y-1467D01*
Y-1633D01*
X4799Y-1800D01*
X4465D01*
X4299Y-1633D01*
X5298Y-800D02*
X5632D01*
X5465D01*
Y-1800D01*
X5298D01*
X5632D01*
X6131Y-800D02*
X6798D01*
Y-967D01*
X6131Y-1633D01*
Y-1800D01*
X6798D01*
X7798Y-800D02*
X7131D01*
Y-1800D01*
X7798D01*
X7131Y-1300D02*
X7464D01*
X8131Y-1134D02*
X8297D01*
Y-1300D01*
X8131D01*
Y-1134D01*
Y-1633D02*
X8297D01*
Y-1800D01*
X8131D01*
Y-1633D01*
X9464Y-1800D02*
Y-800D01*
X8964Y-1300D01*
X9630D01*
X10630Y-800D02*
X10297Y-967D01*
X9964Y-1300D01*
Y-1633D01*
X10130Y-1800D01*
X10463D01*
X10630Y-1633D01*
Y-1467D01*
X10463Y-1300D01*
X9964D01*
X10963Y-800D02*
X11630Y-1800D01*
Y-800D02*
X10963Y-1800D01*
X11963Y-967D02*
X12130Y-800D01*
X12463D01*
X12629Y-967D01*
Y-1134D01*
X12463Y-1300D01*
X12296D01*
X12463D01*
X12629Y-1467D01*
Y-1633D01*
X12463Y-1800D01*
X12130D01*
X11963Y-1633D01*
X12963Y-800D02*
X13629D01*
Y-967D01*
X12963Y-1633D01*
Y-1800D01*
X13962D02*
Y-1134D01*
X14129D01*
X14295Y-1300D01*
Y-1800D01*
Y-1300D01*
X14462Y-1134D01*
X14629Y-1300D01*
Y-1800D01*
X14962D02*
Y-1134D01*
X15129D01*
X15295Y-1300D01*
Y-1800D01*
Y-1300D01*
X15462Y-1134D01*
X15628Y-1300D01*
Y-1800D01*
X500Y39400D02*
X167D01*
X0Y39233D01*
Y38567D01*
X167Y38400D01*
X500D01*
X666Y38567D01*
Y39233D01*
X500Y39400D01*
X1000Y38067D02*
Y39066D01*
X1500D01*
X1666Y38900D01*
Y38567D01*
X1500Y38400D01*
X1000D01*
X2499D02*
X2166D01*
X1999Y38567D01*
Y38900D01*
X2166Y39066D01*
X2499D01*
X2666Y38900D01*
Y38733D01*
X1999D01*
X2999Y38400D02*
Y39066D01*
X3499D01*
X3665Y38900D01*
Y38400D01*
X4665Y39233D02*
X4499Y39400D01*
X4165D01*
X3999Y39233D01*
Y39066D01*
X4165Y38900D01*
X4499D01*
X4665Y38733D01*
Y38567D01*
X4499Y38400D01*
X4165D01*
X3999Y38567D01*
X5665Y39066D02*
X5165D01*
X4998Y38900D01*
Y38567D01*
X5165Y38400D01*
X5665D01*
X6165Y39066D02*
X6498D01*
X6665Y38900D01*
Y38400D01*
X6165D01*
X5998Y38567D01*
X6165Y38733D01*
X6665D01*
X6998Y38400D02*
X7331D01*
X7164D01*
Y39400D01*
X6998D01*
X8331Y38400D02*
X7997D01*
X7831Y38567D01*
Y38900D01*
X7997Y39066D01*
X8331D01*
X8497Y38900D01*
Y38733D01*
X7831D01*
X8830Y38233D02*
X9497D01*
X9830Y39066D02*
X10163Y38400D01*
X10497Y39066D01*
X10830Y39233D02*
X10996Y39400D01*
X11330D01*
X11496Y39233D01*
Y38567D01*
X11330Y38400D01*
X10996D01*
X10830Y38567D01*
Y39233D01*
X12496Y38400D02*
X11830D01*
X12496Y39066D01*
Y39233D01*
X12329Y39400D01*
X11996D01*
X11830Y39233D01*
D30*
X0Y37000D02*
X46000D01*
Y0D02*
Y37000D01*
X0Y0D02*
X46000D01*
X0D02*
Y37000D01*
D31*
X26339Y32004D02*
D03*
X31339D02*
D03*
X30089D02*
D03*
X28839D02*
D03*
X27589D02*
D03*
D32*
X32589D02*
D03*
D33*
X17526Y6096D02*
D03*
X14986D02*
D03*
X12446D02*
D03*
X39624Y28194D02*
D03*
Y25654D02*
D03*
Y23114D02*
D03*
X26670Y6096D02*
D03*
X29210D02*
D03*
X31750D02*
D03*
X34290D02*
D03*
X36830D02*
D03*
X14986Y30480D02*
D03*
X12446D02*
D03*
X9906D02*
D03*
D34*
X9906Y6096D02*
D03*
X24130Y6096D02*
D03*
X17526Y30480D02*
D03*
D35*
X39624Y20574D02*
D03*
D36*
X3000Y3000D02*
D03*
X43000D02*
D03*
Y34000D02*
D03*
X3000D02*
D03*
D37*
X12136Y9652D02*
D03*
X15636D02*
D03*
X19136Y9752D02*
D03*
D38*
X8636Y9652D02*
D03*
D39*
X30000Y34200D02*
D03*
X33300Y18700D02*
D03*
X6600Y31200D02*
D03*
X1500Y29100D02*
D03*
X44250Y20250D02*
D03*
Y24000D02*
D03*
Y28250D02*
D03*
X19500Y16250D02*
D03*
X17500Y1250D02*
D03*
X37500D02*
D03*
X34000D02*
D03*
X30250D02*
D03*
X26000D02*
D03*
X21500Y15250D02*
D03*
X21300Y17400D02*
D03*
X8100Y22200D02*
D03*
X30600Y26100D02*
D03*
X26400Y24000D02*
D03*
Y35400D02*
D03*
X8100D02*
D03*
X12000D02*
D03*
X16200D02*
D03*
X21300D02*
D03*
X6300Y18600D02*
D03*
X39000Y4500D02*
D03*
X41100Y7500D02*
D03*
X29700Y4200D02*
D03*
X12600Y1200D02*
D03*
X7500D02*
D03*
X29400Y28200D02*
D03*
X19550Y20300D02*
D03*
X24500Y13050D02*
D03*
X1525Y15350D02*
D03*
X21675Y23100D02*
D03*
X21550Y31200D02*
D03*
Y27575D02*
D03*
X10525Y26800D02*
D03*
X38100Y11100D02*
D03*
X8100Y16800D02*
D03*
X6600Y16800D02*
D03*
X16200Y13800D02*
D03*
X3600Y10800D02*
D03*
X33300Y12600D02*
D03*
X34500Y26700D02*
D03*
X35100Y23600D02*
D03*
X33600Y17400D02*
D03*
X27300Y19800D02*
D03*
X21300Y20100D02*
D03*
X36400Y18800D02*
D03*
X28500Y14400D02*
D03*
X32300Y21300D02*
D03*
X35200Y21900D02*
D03*
X27000Y14848D02*
D03*
Y25200D02*
D03*
X31800Y22631D02*
D03*
X28800Y22800D02*
D03*
X39300Y16800D02*
D03*
X40200Y18300D02*
D03*
X33000Y30000D02*
D03*
X1300Y24875D02*
D03*
X1425Y19800D02*
D03*
X1500Y9900D02*
D03*
X4500Y16800D02*
D03*
X10500D02*
D03*
X34800Y35400D02*
D03*
X38400D02*
D03*
Y32100D02*
D03*
X43800Y7500D02*
D03*
X42000Y10800D02*
D03*
X23400Y21600D02*
D03*
X30300Y35400D02*
D03*
X6300Y11100D02*
D03*
M02*
