%FSLAX43Y43*%
%MOMM*%
G71*
G01*
G75*
G04 Layer_Color=8421504*
%ADD10R,0.700X1.200*%
%ADD11R,2.050X0.700*%
%ADD12R,2.050X0.500*%
%ADD13O,1.500X0.600*%
%ADD14R,1.500X0.600*%
%ADD15R,1.800X1.300*%
%ADD16O,0.600X1.500*%
%ADD17R,0.600X1.500*%
%ADD18R,0.450X1.075*%
%ADD19R,1.075X0.450*%
%ADD20C,1.000*%
%ADD21R,1.400X1.000*%
%ADD22R,1.000X1.400*%
%ADD23R,1.400X1.000*%
%ADD24R,1.000X1.400*%
%ADD25C,1.000*%
%ADD26C,0.305*%
%ADD27C,0.300*%
%ADD28C,0.500*%
%ADD29C,0.200*%
%ADD30C,0.254*%
%ADD31O,0.900X1.200*%
%ADD32R,0.900X1.200*%
%ADD33C,1.800*%
%ADD34R,1.800X1.800*%
%ADD35R,1.800X1.800*%
%ADD36C,3.000*%
%ADD37C,2.000*%
%ADD38R,2.000X2.000*%
%ADD39C,0.800*%
%ADD40C,0.600*%
%ADD41C,0.250*%
%ADD42C,0.150*%
%ADD43C,0.100*%
%ADD44C,0.152*%
D10*
X5522Y9652D02*
D03*
X3622D02*
D03*
X13650Y25908D02*
D03*
X11750D02*
D03*
D11*
X36576Y29022D02*
D03*
Y30922D02*
D03*
D12*
Y29972D02*
D03*
D13*
X26206Y13081D02*
D03*
Y11811D02*
D03*
Y10541D02*
D03*
Y9271D02*
D03*
X31706Y13081D02*
D03*
Y11811D02*
D03*
Y10541D02*
D03*
D14*
Y9271D02*
D03*
D15*
X43688Y14298D02*
D03*
Y17198D02*
D03*
Y12118D02*
D03*
Y9218D02*
D03*
D16*
X13081Y15030D02*
D03*
X11811D02*
D03*
X4191D02*
D03*
Y20530D02*
D03*
X11811D02*
D03*
X10541D02*
D03*
X9271D02*
D03*
X8001D02*
D03*
X6731D02*
D03*
X5461D02*
D03*
X10541Y15030D02*
D03*
X9271D02*
D03*
X8001D02*
D03*
X6731D02*
D03*
X5461D02*
D03*
D17*
X13081Y20530D02*
D03*
D18*
X31756Y21312D02*
D03*
X30956D02*
D03*
X30156D02*
D03*
X29356D02*
D03*
X28556D02*
D03*
X27756D02*
D03*
X26956D02*
D03*
X26156D02*
D03*
Y29487D02*
D03*
X26956D02*
D03*
X27756D02*
D03*
X28556D02*
D03*
X29356D02*
D03*
X30156D02*
D03*
X30956D02*
D03*
X31756D02*
D03*
D19*
X24868Y22600D02*
D03*
Y23400D02*
D03*
Y24200D02*
D03*
Y25000D02*
D03*
Y25800D02*
D03*
Y26600D02*
D03*
Y27400D02*
D03*
Y28200D02*
D03*
X33043D02*
D03*
Y27400D02*
D03*
Y26600D02*
D03*
Y25800D02*
D03*
Y25000D02*
D03*
Y24200D02*
D03*
Y23400D02*
D03*
Y22600D02*
D03*
D20*
X3556Y12700D02*
D03*
X5588D02*
D03*
X6700Y35000D02*
D03*
X39300Y2000D02*
D03*
D21*
X19812Y22876D02*
D03*
Y24876D02*
D03*
X29464Y18180D02*
D03*
Y16180D02*
D03*
X22860Y18272D02*
D03*
Y16272D02*
D03*
Y8144D02*
D03*
Y10144D02*
D03*
X32004Y18180D02*
D03*
Y16180D02*
D03*
X3048Y27416D02*
D03*
Y25416D02*
D03*
X5080D02*
D03*
Y27416D02*
D03*
X9144Y23384D02*
D03*
Y25384D02*
D03*
X27432Y18180D02*
D03*
Y16180D02*
D03*
X7112Y25384D02*
D03*
Y23384D02*
D03*
X25400Y18180D02*
D03*
Y16180D02*
D03*
X36576Y24908D02*
D03*
Y26908D02*
D03*
Y20844D02*
D03*
Y22844D02*
D03*
D22*
X36560Y11176D02*
D03*
X34560D02*
D03*
Y15240D02*
D03*
X36560D02*
D03*
X39132Y11176D02*
D03*
X41132D02*
D03*
X36560Y17272D02*
D03*
X34560D02*
D03*
X11700Y12700D02*
D03*
X13700D02*
D03*
X11700Y23876D02*
D03*
X13700D02*
D03*
X39132Y15240D02*
D03*
X41132D02*
D03*
Y13208D02*
D03*
X39132D02*
D03*
X41132Y9144D02*
D03*
X39132D02*
D03*
X34560Y13208D02*
D03*
X36560D02*
D03*
Y9144D02*
D03*
X34560D02*
D03*
X7636Y12700D02*
D03*
X9636D02*
D03*
X3572Y7620D02*
D03*
X5572D02*
D03*
X16272Y17780D02*
D03*
X18272D02*
D03*
Y15240D02*
D03*
X16272D02*
D03*
Y20320D02*
D03*
X18272D02*
D03*
X3064Y23368D02*
D03*
X5064D02*
D03*
X11700Y27940D02*
D03*
X13700D02*
D03*
X16780Y27432D02*
D03*
X18780D02*
D03*
D23*
X22944Y12258D02*
D03*
Y14158D02*
D03*
X20744Y13208D02*
D03*
D24*
X15814Y22776D02*
D03*
X17714D02*
D03*
X16764Y24976D02*
D03*
D29*
X300Y-1800D02*
Y-800D01*
X800D01*
X966Y-967D01*
Y-1300D01*
X800Y-1467D01*
X300D01*
X1966Y-967D02*
X1800Y-800D01*
X1466D01*
X1300Y-967D01*
Y-1633D01*
X1466Y-1800D01*
X1800D01*
X1966Y-1633D01*
X2299Y-800D02*
Y-1800D01*
X2799D01*
X2966Y-1633D01*
Y-1467D01*
X2799Y-1300D01*
X2299D01*
X2799D01*
X2966Y-1134D01*
Y-967D01*
X2799Y-800D01*
X2299D01*
X4965Y-967D02*
X4799Y-800D01*
X4465D01*
X4299Y-967D01*
Y-1134D01*
X4465Y-1300D01*
X4799D01*
X4965Y-1467D01*
Y-1633D01*
X4799Y-1800D01*
X4465D01*
X4299Y-1633D01*
X5298Y-800D02*
X5632D01*
X5465D01*
Y-1800D01*
X5298D01*
X5632D01*
X6131Y-800D02*
X6798D01*
Y-967D01*
X6131Y-1633D01*
Y-1800D01*
X6798D01*
X7798Y-800D02*
X7131D01*
Y-1800D01*
X7798D01*
X7131Y-1300D02*
X7464D01*
X8131Y-1134D02*
X8297D01*
Y-1300D01*
X8131D01*
Y-1134D01*
Y-1633D02*
X8297D01*
Y-1800D01*
X8131D01*
Y-1633D01*
X9464Y-1800D02*
Y-800D01*
X8964Y-1300D01*
X9630D01*
X10630Y-800D02*
X10297Y-967D01*
X9964Y-1300D01*
Y-1633D01*
X10130Y-1800D01*
X10463D01*
X10630Y-1633D01*
Y-1467D01*
X10463Y-1300D01*
X9964D01*
X10963Y-800D02*
X11630Y-1800D01*
Y-800D02*
X10963Y-1800D01*
X11963Y-967D02*
X12130Y-800D01*
X12463D01*
X12629Y-967D01*
Y-1134D01*
X12463Y-1300D01*
X12296D01*
X12463D01*
X12629Y-1467D01*
Y-1633D01*
X12463Y-1800D01*
X12130D01*
X11963Y-1633D01*
X12963Y-800D02*
X13629D01*
Y-967D01*
X12963Y-1633D01*
Y-1800D01*
X13962D02*
Y-1134D01*
X14129D01*
X14295Y-1300D01*
Y-1800D01*
Y-1300D01*
X14462Y-1134D01*
X14629Y-1300D01*
Y-1800D01*
X14962D02*
Y-1134D01*
X15129D01*
X15295Y-1300D01*
Y-1800D01*
Y-1300D01*
X15462Y-1134D01*
X15628Y-1300D01*
Y-1800D01*
D30*
X0Y37000D02*
X46000D01*
Y0D02*
Y37000D01*
X0Y0D02*
X46000D01*
X0D02*
Y37000D01*
M02*
