%FSLAX43Y43*%
%MOMM*%
G71*
G01*
G75*
G04 Layer_Color=16711935*
%ADD10R,0.700X1.200*%
%ADD11R,2.050X0.700*%
%ADD12R,2.050X0.500*%
%ADD13O,1.500X0.600*%
%ADD14R,1.500X0.600*%
%ADD15R,1.800X1.300*%
%ADD16O,0.600X1.500*%
%ADD17R,0.600X1.500*%
%ADD18R,0.450X1.075*%
%ADD19R,1.075X0.450*%
%ADD20C,1.000*%
%ADD21R,1.400X1.000*%
%ADD22R,1.000X1.400*%
%ADD23R,1.400X1.000*%
%ADD24R,1.000X1.400*%
%ADD25C,1.000*%
%ADD26C,0.305*%
%ADD27C,0.300*%
%ADD28C,0.500*%
%ADD29C,0.200*%
%ADD30C,0.254*%
%ADD31O,0.900X1.200*%
%ADD32R,0.900X1.200*%
%ADD33C,1.800*%
%ADD34R,1.800X1.800*%
%ADD35R,1.800X1.800*%
%ADD36C,3.000*%
%ADD37C,2.000*%
%ADD38R,2.000X2.000*%
%ADD39C,0.800*%
%ADD40C,0.600*%
%ADD41C,0.250*%
%ADD42C,0.150*%
%ADD43C,0.100*%
%ADD44C,0.152*%
%ADD45R,0.903X1.403*%
%ADD46R,2.253X0.903*%
%ADD47R,2.253X0.703*%
%ADD48O,1.703X0.803*%
%ADD49R,1.703X0.803*%
%ADD50R,2.003X1.503*%
%ADD51O,0.803X1.703*%
%ADD52R,0.803X1.703*%
%ADD53R,0.653X1.278*%
%ADD54R,1.278X0.653*%
%ADD55C,1.203*%
%ADD56R,1.603X1.203*%
%ADD57R,1.203X1.603*%
%ADD58R,1.603X1.203*%
%ADD59R,1.203X1.603*%
%ADD60O,1.103X1.403*%
%ADD61R,1.103X1.403*%
%ADD62C,2.003*%
%ADD63R,2.003X2.003*%
%ADD64R,2.003X2.003*%
%ADD65C,3.203*%
%ADD66C,2.203*%
%ADD67R,2.203X2.203*%
%ADD68C,1.003*%
D29*
X300Y-1800D02*
Y-800D01*
X800D01*
X966Y-967D01*
Y-1300D01*
X800Y-1467D01*
X300D01*
X1966Y-967D02*
X1800Y-800D01*
X1466D01*
X1300Y-967D01*
Y-1633D01*
X1466Y-1800D01*
X1800D01*
X1966Y-1633D01*
X2299Y-800D02*
Y-1800D01*
X2799D01*
X2966Y-1633D01*
Y-1467D01*
X2799Y-1300D01*
X2299D01*
X2799D01*
X2966Y-1134D01*
Y-967D01*
X2799Y-800D01*
X2299D01*
X4965Y-967D02*
X4799Y-800D01*
X4465D01*
X4299Y-967D01*
Y-1134D01*
X4465Y-1300D01*
X4799D01*
X4965Y-1467D01*
Y-1633D01*
X4799Y-1800D01*
X4465D01*
X4299Y-1633D01*
X5298Y-800D02*
X5632D01*
X5465D01*
Y-1800D01*
X5298D01*
X5632D01*
X6131Y-800D02*
X6798D01*
Y-967D01*
X6131Y-1633D01*
Y-1800D01*
X6798D01*
X7798Y-800D02*
X7131D01*
Y-1800D01*
X7798D01*
X7131Y-1300D02*
X7464D01*
X8131Y-1134D02*
X8297D01*
Y-1300D01*
X8131D01*
Y-1134D01*
Y-1633D02*
X8297D01*
Y-1800D01*
X8131D01*
Y-1633D01*
X9464Y-1800D02*
Y-800D01*
X8964Y-1300D01*
X9630D01*
X10630Y-800D02*
X10297Y-967D01*
X9964Y-1300D01*
Y-1633D01*
X10130Y-1800D01*
X10463D01*
X10630Y-1633D01*
Y-1467D01*
X10463Y-1300D01*
X9964D01*
X10963Y-800D02*
X11630Y-1800D01*
Y-800D02*
X10963Y-1800D01*
X11963Y-967D02*
X12130Y-800D01*
X12463D01*
X12629Y-967D01*
Y-1134D01*
X12463Y-1300D01*
X12296D01*
X12463D01*
X12629Y-1467D01*
Y-1633D01*
X12463Y-1800D01*
X12130D01*
X11963Y-1633D01*
X12963Y-800D02*
X13629D01*
Y-967D01*
X12963Y-1633D01*
Y-1800D01*
X13962D02*
Y-1134D01*
X14129D01*
X14295Y-1300D01*
Y-1800D01*
Y-1300D01*
X14462Y-1134D01*
X14629Y-1300D01*
Y-1800D01*
X14962D02*
Y-1134D01*
X15129D01*
X15295Y-1300D01*
Y-1800D01*
Y-1300D01*
X15462Y-1134D01*
X15628Y-1300D01*
Y-1800D01*
X500Y39400D02*
X167D01*
X0Y39233D01*
Y38567D01*
X167Y38400D01*
X500D01*
X666Y38567D01*
Y39233D01*
X500Y39400D01*
X1000Y38067D02*
Y39066D01*
X1500D01*
X1666Y38900D01*
Y38567D01*
X1500Y38400D01*
X1000D01*
X2499D02*
X2166D01*
X1999Y38567D01*
Y38900D01*
X2166Y39066D01*
X2499D01*
X2666Y38900D01*
Y38733D01*
X1999D01*
X2999Y38400D02*
Y39066D01*
X3499D01*
X3665Y38900D01*
Y38400D01*
X4665Y39233D02*
X4499Y39400D01*
X4165D01*
X3999Y39233D01*
Y39066D01*
X4165Y38900D01*
X4499D01*
X4665Y38733D01*
Y38567D01*
X4499Y38400D01*
X4165D01*
X3999Y38567D01*
X5665Y39066D02*
X5165D01*
X4998Y38900D01*
Y38567D01*
X5165Y38400D01*
X5665D01*
X6165Y39066D02*
X6498D01*
X6665Y38900D01*
Y38400D01*
X6165D01*
X5998Y38567D01*
X6165Y38733D01*
X6665D01*
X6998Y38400D02*
X7331D01*
X7164D01*
Y39400D01*
X6998D01*
X8331Y38400D02*
X7997D01*
X7831Y38567D01*
Y38900D01*
X7997Y39066D01*
X8331D01*
X8497Y38900D01*
Y38733D01*
X7831D01*
X8830Y38233D02*
X9497D01*
X9830Y39066D02*
X10163Y38400D01*
X10497Y39066D01*
X10830Y39233D02*
X10996Y39400D01*
X11330D01*
X11496Y39233D01*
Y38567D01*
X11330Y38400D01*
X10996D01*
X10830Y38567D01*
Y39233D01*
X12496Y38400D02*
X11830D01*
X12496Y39066D01*
Y39233D01*
X12329Y39400D01*
X11996D01*
X11830Y39233D01*
D30*
X0Y37000D02*
X46000D01*
Y0D02*
Y37000D01*
X0Y0D02*
X46000D01*
X0D02*
Y37000D01*
D60*
X26339Y32004D02*
D03*
X31339D02*
D03*
X30089D02*
D03*
X28839D02*
D03*
X27589D02*
D03*
D61*
X32589D02*
D03*
D62*
X17526Y6096D02*
D03*
X14986D02*
D03*
X12446D02*
D03*
X39624Y28194D02*
D03*
Y25654D02*
D03*
Y23114D02*
D03*
X26670Y6096D02*
D03*
X29210D02*
D03*
X31750D02*
D03*
X34290D02*
D03*
X36830D02*
D03*
X14986Y30480D02*
D03*
X12446D02*
D03*
X9906D02*
D03*
D63*
X9906Y6096D02*
D03*
X24130Y6096D02*
D03*
X17526Y30480D02*
D03*
D64*
X39624Y20574D02*
D03*
D65*
X3000Y3000D02*
D03*
X43000D02*
D03*
Y34000D02*
D03*
X3000D02*
D03*
D66*
X12136Y9652D02*
D03*
X15636D02*
D03*
X19136Y9752D02*
D03*
D67*
X8636Y9652D02*
D03*
D68*
X30000Y34200D02*
D03*
X33300Y18700D02*
D03*
X6600Y31200D02*
D03*
X1500Y29100D02*
D03*
X44250Y20250D02*
D03*
Y24000D02*
D03*
Y28250D02*
D03*
X19500Y16250D02*
D03*
X17500Y1250D02*
D03*
X37500D02*
D03*
X34000D02*
D03*
X30250D02*
D03*
X26000D02*
D03*
X21500Y15250D02*
D03*
X21300Y17400D02*
D03*
X8100Y22200D02*
D03*
X30600Y26100D02*
D03*
X26400Y24000D02*
D03*
Y35400D02*
D03*
X8100D02*
D03*
X12000D02*
D03*
X16200D02*
D03*
X21300D02*
D03*
X6300Y18600D02*
D03*
X39000Y4500D02*
D03*
X41100Y7500D02*
D03*
X29700Y4200D02*
D03*
X12600Y1200D02*
D03*
X7500D02*
D03*
X29400Y28200D02*
D03*
X19550Y20300D02*
D03*
X24500Y13050D02*
D03*
X1525Y15350D02*
D03*
X21675Y23100D02*
D03*
X21550Y31200D02*
D03*
Y27575D02*
D03*
X10525Y26800D02*
D03*
X38100Y11100D02*
D03*
X8100Y16800D02*
D03*
X6600Y16800D02*
D03*
X16200Y13800D02*
D03*
X3600Y10800D02*
D03*
X33300Y12600D02*
D03*
X34500Y26700D02*
D03*
X35100Y23600D02*
D03*
X33600Y17400D02*
D03*
X27300Y19800D02*
D03*
X21300Y20100D02*
D03*
X36400Y18800D02*
D03*
X28500Y14400D02*
D03*
X32300Y21300D02*
D03*
X35200Y21900D02*
D03*
X27000Y14848D02*
D03*
Y25200D02*
D03*
X31800Y22631D02*
D03*
X28800Y22800D02*
D03*
X39300Y16800D02*
D03*
X40200Y18300D02*
D03*
X33000Y30000D02*
D03*
X1300Y24875D02*
D03*
X1425Y19800D02*
D03*
X1500Y9900D02*
D03*
X4500Y16800D02*
D03*
X10500D02*
D03*
X34800Y35400D02*
D03*
X38400D02*
D03*
Y32100D02*
D03*
X43800Y7500D02*
D03*
X42000Y10800D02*
D03*
X23400Y21600D02*
D03*
X30300Y35400D02*
D03*
X6300Y11100D02*
D03*
M02*
