M48
;Layer_Color=9474304
;FILE_FORMAT=4:3
METRIC,LZ
;TYPE=PLATED
T1F00S00C0.500
T2F00S00C1.000
T3F00S00C1.200
T4F00S00C3.000
%
T01
X0026Y000125
X003025
X00297Y00042
X0034Y000125
X00375
X0039Y00045
X00411Y00075
X00438
X0042Y00108
X00381Y00111
X00333Y00126
X00336Y00174
X00333Y00187
X00364Y00188
X00352Y00219
X00351Y00236
X00345Y00267
X00306Y00261
X00294Y00282
X0028839Y0032004
X0030089
X0031339
X0032589
X0033Y003
X003Y00342
X00303Y00354
X00264
X0026339Y0032004
X0027589
X002155Y00312
Y0027575
X0021675Y00231
X00234Y00216
X00213Y00201
Y00174
X00215Y001525
X00245Y001305
X0027Y0014848
X00285Y00144
X00273Y00198
X00288Y00228
X00318Y0022631
X00323Y00213
X00264Y0024
X0027Y00252
X00213Y00354
X00348
X00384
Y00321
X004425Y002825
Y0024
Y002025
X00402Y00183
X00393Y00168
X00195Y001625
X001955Y00203
X00162Y00138
X00105Y00168
X00081
X00066Y00168
X00045Y00168
X00063Y00186
X00081Y00222
X0010525Y00268
X00066Y00312
X00081Y00354
X0012
X00162
X00015Y00291
X00013Y0024875
X0001425Y00198
X0001525Y001535
X00015Y00099
X00036Y00108
X00063Y00111
X00075Y00012
X00126
X00175Y000125
T02
X002413Y0006096
X002667
X002921
X003175
X003429
X003683
X0039624Y0020574
Y0023114
Y0025654
Y0028194
X0017526Y003048
X0014986
X0012446
X0009906
X0009906Y0006096
X0012446
X0014986
X0017526
T03
X0008636Y0009652
X0012136
X0015636
X0019136Y0009752
T04
X0043Y0003
Y0034
X0003
Y0003
M30
